<?xml version="1.0" encoding="UTF-8"?>
<svg width="753px" height="125px" viewBox="0 0 753 125" version="1.1" xmlns="http://www.w3.org/2000/svg" xmlns:xlink="http://www.w3.org/1999/xlink">
    <title>approval full</title>
    <g id="Page-2" stroke="none" stroke-width="1" fill="none" fill-rule="evenodd">
        <g id="Collection-Notice" transform="translate(-455.000000, -389.000000)">
            <g id="approval.1" transform="translate(455.000000, 389.000000)">
                <path d="M753,14 L753,28 L160.460005,28 L111.992287,45.6413821 L107.204005,32.4856855 L156.999005,14.361 L157,14 L753,14 Z" id="Rectangle-2" fill="#D0E3EB"></path>
                <circle id="Oval" fill="#D0E3EB" fill-rule="nonzero" cx="62.5" cy="62.5" r="62.5"></circle>
                <path d="M85.0921004,38 L58.860658,66.2577037 L54.6445427,62.0077608 L40.0390625,88.0276193 L75.7251191,124 C99.3516955,118.688882 117.797471,100.079805 123.046875,76.2593015 L85.0921004,38 Z" id="Path" fill="#AFCEDF" fill-rule="nonzero"></path>
                <path d="M96.4107143,62.0105634 L96.4107143,23.5880282 C96.4107143,19.0950704 92.7924603,15.4929577 88.365873,15.4929577 L19.85,15.4929577 L19.85,97.915493 C19.85,102.021127 23.1603175,105.352113 27.2404762,105.352113 L73.0460317,105.46831 C77.0107143,108.21831 81.8222222,109.806338 86.9801587,109.806338 C100.606349,109.806338 111.653571,98.6901408 111.653571,84.9788732 C111.653571,74.6373239 105.340873,65.7676056 96.4107143,62.0105634 Z" id="Path" fill="#000000" fill-rule="nonzero" opacity="0.12"></path>
                <path d="M85.7484127,89.7816901 C85.7484127,92.8028169 83.2849206,95.2429577 80.2825397,95.2429577 L61.7678571,95.2429577 L20.465873,95.2429577 C17.4634921,95.2429577 15,92.8028169 15,89.7429577 L15,5.5 C15,2.47887324 17.425,-7.10542736e-15 20.465873,-7.10542736e-15 L80.3595238,-7.10542736e-15 C83.3619048,-7.10542736e-15 85.8253968,2.44014085 85.8253968,5.5 L85.8253968,70.4542254 L85.7484127,89.7816901 Z" id="Path" fill="#4584BC" fill-rule="nonzero"></path>
                <path d="M75.8944444,16.4612676 L52.4142857,16.4612676 C51.9138889,16.4612676 51.5289683,16.0739437 51.5289683,15.5704225 L51.5289683,15.5704225 C51.5289683,15.0669014 51.9138889,14.6795775 52.4142857,14.6795775 L75.8944444,14.6795775 C76.3948413,14.6795775 76.7797619,15.0669014 76.7797619,15.5704225 L76.7797619,15.5704225 C76.818254,16.0352113 76.3948413,16.4612676 75.8944444,16.4612676 Z" id="Path" fill="#FFFFFF" fill-rule="nonzero"></path>
                <path d="M75.8944444,21.4190141 L52.4142857,21.4190141 C51.9138889,21.4190141 51.5289683,21.0316901 51.5289683,20.528169 L51.5289683,20.528169 C51.5289683,20.0246479 51.9138889,19.6373239 52.4142857,19.6373239 L75.8944444,19.6373239 C76.3948413,19.6373239 76.7797619,20.0246479 76.7797619,20.528169 L76.7797619,20.528169 C76.818254,21.0316901 76.3948413,21.4190141 75.8944444,21.4190141 Z" id="Path" fill="#FFFFFF" fill-rule="nonzero"></path>
                <path d="M75.8944444,30.1725352 L52.4142857,30.1725352 C51.9138889,30.1725352 51.5289683,29.7852113 51.5289683,29.2816901 L51.5289683,29.2816901 C51.5289683,28.778169 51.9138889,28.3908451 52.4142857,28.3908451 L75.8944444,28.3908451 C76.3948413,28.3908451 76.7797619,28.778169 76.7797619,29.2816901 L76.7797619,29.2816901 C76.818254,29.7464789 76.3948413,30.1725352 75.8944444,30.1725352 Z" id="Path" fill="#FFFFFF" fill-rule="nonzero"></path>
                <path d="M75.8944444,35.1302817 L52.4142857,35.1302817 C51.9138889,35.1302817 51.5289683,34.7429577 51.5289683,34.2394366 L51.5289683,34.2394366 C51.5289683,33.7359155 51.9138889,33.3485915 52.4142857,33.3485915 L75.8944444,33.3485915 C76.3948413,33.3485915 76.7797619,33.7359155 76.7797619,34.2394366 L76.7797619,34.2394366 C76.818254,34.7429577 76.3948413,35.1302817 75.8944444,35.1302817 Z" id="Path" fill="#FFFFFF" fill-rule="nonzero"></path>
                <path d="M75.8944444,42.0633803 L25.931746,42.0633803 C25.4313492,42.0633803 25.0464286,41.6760563 25.0464286,41.1725352 L25.0464286,41.1725352 C25.0464286,40.6690141 25.4313492,40.2816901 25.931746,40.2816901 L75.8944444,40.2816901 C76.3948413,40.2816901 76.7797619,40.6690141 76.7797619,41.1725352 L76.7797619,41.1725352 C76.818254,41.6373239 76.3948413,42.0633803 75.8944444,42.0633803 Z" id="Path" fill="#FFFFFF" fill-rule="nonzero"></path>
                <path d="M75.8944444,46.4788732 L25.931746,46.4788732 C25.4313492,46.4788732 25.0464286,46.0915493 25.0464286,45.5880282 L25.0464286,45.5880282 C25.0464286,45.084507 25.4313492,44.6971831 25.931746,44.6971831 L75.8944444,44.6971831 C76.3948413,44.6971831 76.7797619,45.084507 76.7797619,45.5880282 L76.7797619,45.5880282 C76.818254,46.0915493 76.3948413,46.4788732 75.8944444,46.4788732 Z" id="Path" fill="#FFFFFF" fill-rule="nonzero"></path>
                <path d="M65.2706349,60.8873239 L42.4448413,60.8873239 C41.9444444,60.8873239 41.5595238,60.5 41.5595238,59.9964789 L41.5595238,59.9964789 C41.5595238,59.4929577 41.9444444,59.1056338 42.4448413,59.1056338 L65.2706349,59.1056338 C65.7710317,59.1056338 66.1559524,59.4929577 66.1559524,59.9964789 L66.1559524,59.9964789 C66.1559524,60.5 65.7325397,60.8873239 65.2706349,60.8873239 Z" id="Path" fill="#FFFFFF" fill-rule="nonzero"></path>
                <path d="M75.8944444,55.9295775 L42.4063492,55.9295775 C41.9059524,55.9295775 41.5210317,55.5422535 41.5210317,55.0387324 L41.5210317,55.0387324 C41.5210317,54.5352113 41.9059524,54.1478873 42.4063492,54.1478873 L75.8944444,54.1478873 C76.3948413,54.1478873 76.7797619,54.5352113 76.7797619,55.0387324 L76.7797619,55.0387324 C76.818254,55.5035211 76.3948413,55.9295775 75.8944444,55.9295775 Z" id="Path" fill="#FFFFFF" fill-rule="nonzero"></path>
                <polygon id="Path" fill="#FFFFFF" fill-rule="nonzero" points="36.0551587 64.3732394 25.5083333 64.3732394 25.5083333 53.7605634 36.0551587 53.7605634"></polygon>
                <polygon id="Path" fill="#FFFFFF" fill-rule="nonzero" points="26.7785714 63.1338028 34.7849206 63.1338028 34.7849206 55.0774648 26.7785714 55.0774648"></polygon>
                <polygon id="Path" fill="#C3D82E" fill-rule="nonzero" points="30.5123016 61.5070423 27.8948413 59.3767606 28.8571429 58.3309859 30.3583333 59.5316901 32.9757937 56.665493 34.0920635 57.556338"></polygon>
                <path d="M70.2361111,77.7359155 L42.4063492,77.7359155 C41.9059524,77.7359155 41.5210317,77.3485915 41.5210317,76.8450704 L41.5210317,76.8450704 C41.5210317,76.3415493 41.9059524,75.9542254 42.4063492,75.9542254 L70.2361111,75.9542254 C70.7365079,75.9542254 71.1214286,76.3415493 71.1214286,76.8450704 L71.1214286,76.8450704 C71.1599206,77.3098592 70.7365079,77.7359155 70.2361111,77.7359155 Z" id="Path" fill="#FFFFFF" fill-rule="nonzero"></path>
                <path d="M75.8944444,72.7394366 L42.4063492,72.7394366 C41.9059524,72.7394366 41.5210317,72.3521127 41.5210317,71.8485915 L41.5210317,71.8485915 C41.5210317,71.3450704 41.9059524,70.9577465 42.4063492,70.9577465 L75.8944444,70.9577465 C76.3948413,70.9577465 76.7797619,71.3450704 76.7797619,71.8485915 L76.7797619,71.8485915 C76.818254,72.3521127 76.3948413,72.7394366 75.8944444,72.7394366 Z" id="Path" fill="#FFFFFF" fill-rule="nonzero"></path>
                <polygon id="Path" fill="#FFFFFF" fill-rule="nonzero" points="36.0551587 81.221831 25.5083333 81.221831 25.5083333 70.6091549 36.0551587 70.6091549"></polygon>
                <polygon id="Path" fill="#FFFFFF" fill-rule="nonzero" points="26.7785714 79.943662 34.7849206 79.943662 34.7849206 71.8873239 26.7785714 71.8873239"></polygon>
                <polygon id="Path" fill="#C3D82E" fill-rule="nonzero" points="30.5123016 78.3169014 27.8948413 76.1866197 28.8571429 75.1408451 30.3583333 76.3802817 32.9757937 73.5140845 34.0920635 74.4049296"></polygon>
                <ellipse id="Oval" fill="#ED2F4C" fill-rule="nonzero" transform="translate(35.638332, 24.855007) rotate(-76.885135) translate(-35.638332, -24.855007) " cx="35.638332" cy="24.8550074" rx="11.2286193" ry="11.1661012"></ellipse>
                <rect id="Rectangle" fill="#FFFFFF" fill-rule="nonzero" x="29.7809524" y="23.1619718" width="11.7015873" height="3.4084507"></rect>
                <polygon id="Rectangle" fill="#FFFFFF" fill-rule="nonzero" transform="translate(35.645295, 24.857454) rotate(-90.000000) translate(-35.645295, -24.857454) " points="29.7579428 23.1638031 41.5326476 23.1638031 41.5326476 26.5511047 29.7579428 26.5511047"></polygon>
                <circle id="Oval" fill="#A4D72E" fill-rule="nonzero" transform="translate(81.706607, 75.889620) rotate(-45.000000) translate(-81.706607, -75.889620) " cx="81.7066069" cy="75.8896195" r="24.7196669"></circle>
                <polygon id="Path" fill="#FFFFFF" fill-rule="nonzero" points="78.9759758 88.8291157 65.626249 76.0780362 71.3257026 70.6743775 78.9759758 77.9440478 94.353025 63.2880814 100.052479 68.7306154"></polygon>
            </g>
        </g>
    </g>
</svg>
