<?xml version="1.0" encoding="UTF-8"?>
<svg width="125px" height="125px" viewBox="0 0 125 125" version="1.1" xmlns="http://www.w3.org/2000/svg" xmlns:xlink="http://www.w3.org/1999/xlink">
    <title>approval</title>
    <g id="Page-2" stroke="none" stroke-width="1" fill="none" fill-rule="evenodd">
        <g id="v" transform="translate(-368.000000, -482.000000)" fill-rule="nonzero">
            <g id="enrolment" transform="translate(368.000000, 482.000000)">
                <circle id="Oval" fill="#5090FF" cx="62.5" cy="62.5" r="62.5"></circle>
                <circle id="Oval" fill="#D0E3EB" cx="62.5" cy="62.5" r="62.5"></circle>
                <path d="M85.0921004,38 L58.860658,66.2577037 L54.6445427,62.0077608 L40.0390625,88.0276193 L75.7251191,124 C99.3516955,118.688882 117.797471,100.079805 123.046875,76.2593015 L85.0921004,38 Z" id="Path" fill="#AFCEDF"></path>
                <path d="M95.7571429,62.0880282 L95.7571429,23.665493 C95.7571429,19.1725352 92.1388889,15.5704225 87.7123016,15.5704225 L19.1964286,15.5704225 L19.1964286,97.9929577 C19.1964286,102.098592 22.506746,105.429577 26.5869048,105.429577 L72.3924603,105.545775 C76.3571429,108.295775 81.1686508,109.883803 86.3265873,109.883803 C99.9527778,109.883803 111,98.7676056 111,85.056338 C111,74.7147887 104.687302,65.8450704 95.7571429,62.0880282 Z" id="Path" fill="#000000" opacity="0.12"></path>
                <path d="M85.0948413,89.8591549 C85.0948413,92.8802817 82.6313492,95.3204225 79.6289683,95.3204225 L61.1142857,95.3204225 L19.8123016,95.3204225 C16.8099206,95.3204225 14.3464286,92.8802817 14.3464286,89.8204225 L14.3464286,5.57746479 C14.3464286,2.55633803 16.7714286,0.0774647887 19.8123016,0.0774647887 L79.7059524,0.0774647887 C82.7083333,0.0774647887 85.1718254,2.51760563 85.1718254,5.57746479 L85.1718254,70.5316901 L85.0948413,89.8591549 Z" id="Path" fill="#4584BC"></path>
                <path d="M75.240873,16.5387324 L51.7607143,16.5387324 C51.2603175,16.5387324 50.8753968,16.1514085 50.8753968,15.6478873 L50.8753968,15.6478873 C50.8753968,15.1443662 51.2603175,14.7570423 51.7607143,14.7570423 L75.240873,14.7570423 C75.7412698,14.7570423 76.1261905,15.1443662 76.1261905,15.6478873 L76.1261905,15.6478873 C76.1646825,16.1126761 75.7412698,16.5387324 75.240873,16.5387324 Z" id="Path" fill="#FFFFFF"></path>
                <path d="M75.240873,21.4964789 L51.7607143,21.4964789 C51.2603175,21.4964789 50.8753968,21.1091549 50.8753968,20.6056338 L50.8753968,20.6056338 C50.8753968,20.1021127 51.2603175,19.7147887 51.7607143,19.7147887 L75.240873,19.7147887 C75.7412698,19.7147887 76.1261905,20.1021127 76.1261905,20.6056338 L76.1261905,20.6056338 C76.1646825,21.1091549 75.7412698,21.4964789 75.240873,21.4964789 Z" id="Path" fill="#FFFFFF"></path>
                <path d="M75.240873,30.25 L51.7607143,30.25 C51.2603175,30.25 50.8753968,29.8626761 50.8753968,29.3591549 L50.8753968,29.3591549 C50.8753968,28.8556338 51.2603175,28.4683099 51.7607143,28.4683099 L75.240873,28.4683099 C75.7412698,28.4683099 76.1261905,28.8556338 76.1261905,29.3591549 L76.1261905,29.3591549 C76.1646825,29.8239437 75.7412698,30.25 75.240873,30.25 Z" id="Path" fill="#FFFFFF"></path>
                <path d="M75.240873,35.2077465 L51.7607143,35.2077465 C51.2603175,35.2077465 50.8753968,34.8204225 50.8753968,34.3169014 L50.8753968,34.3169014 C50.8753968,33.8133803 51.2603175,33.4260563 51.7607143,33.4260563 L75.240873,33.4260563 C75.7412698,33.4260563 76.1261905,33.8133803 76.1261905,34.3169014 L76.1261905,34.3169014 C76.1646825,34.8204225 75.7412698,35.2077465 75.240873,35.2077465 Z" id="Path" fill="#FFFFFF"></path>
                <path d="M75.240873,42.1408451 L25.2781746,42.1408451 C24.7777778,42.1408451 24.3928571,41.7535211 24.3928571,41.25 L24.3928571,41.25 C24.3928571,40.7464789 24.7777778,40.3591549 25.2781746,40.3591549 L75.240873,40.3591549 C75.7412698,40.3591549 76.1261905,40.7464789 76.1261905,41.25 L76.1261905,41.25 C76.1646825,41.7147887 75.7412698,42.1408451 75.240873,42.1408451 Z" id="Path" fill="#FFFFFF"></path>
                <path d="M75.240873,46.556338 L25.2781746,46.556338 C24.7777778,46.556338 24.3928571,46.1690141 24.3928571,45.665493 L24.3928571,45.665493 C24.3928571,45.1619718 24.7777778,44.7746479 25.2781746,44.7746479 L75.240873,44.7746479 C75.7412698,44.7746479 76.1261905,45.1619718 76.1261905,45.665493 L76.1261905,45.665493 C76.1646825,46.1690141 75.7412698,46.556338 75.240873,46.556338 Z" id="Path" fill="#FFFFFF"></path>
                <path d="M64.6170635,60.9647887 L41.7912698,60.9647887 C41.290873,60.9647887 40.9059524,60.5774648 40.9059524,60.0739437 L40.9059524,60.0739437 C40.9059524,59.5704225 41.290873,59.1830986 41.7912698,59.1830986 L64.6170635,59.1830986 C65.1174603,59.1830986 65.502381,59.5704225 65.502381,60.0739437 L65.502381,60.0739437 C65.502381,60.5774648 65.0789683,60.9647887 64.6170635,60.9647887 Z" id="Path" fill="#FFFFFF"></path>
                <path d="M75.240873,56.0070423 L41.7527778,56.0070423 C41.252381,56.0070423 40.8674603,55.6197183 40.8674603,55.1161972 L40.8674603,55.1161972 C40.8674603,54.6126761 41.252381,54.2253521 41.7527778,54.2253521 L75.240873,54.2253521 C75.7412698,54.2253521 76.1261905,54.6126761 76.1261905,55.1161972 L76.1261905,55.1161972 C76.1646825,55.5809859 75.7412698,56.0070423 75.240873,56.0070423 Z" id="Path" fill="#FFFFFF"></path>
                <polygon id="Path" fill="#FFFFFF" points="35.4015873 64.4507042 24.8547619 64.4507042 24.8547619 53.8380282 35.4015873 53.8380282"></polygon>
                <polygon id="Path" fill="#FFFFFF" points="26.125 63.2112676 34.1313492 63.2112676 34.1313492 55.1549296 26.125 55.1549296"></polygon>
                <polygon id="Path" fill="#C3D82E" points="29.8587302 61.584507 27.2412698 59.4542254 28.2035714 58.4084507 29.7047619 59.6091549 32.3222222 56.7429577 33.4384921 57.6338028"></polygon>
                <path d="M69.5825397,77.8133803 L41.7527778,77.8133803 C41.252381,77.8133803 40.8674603,77.4260563 40.8674603,76.9225352 L40.8674603,76.9225352 C40.8674603,76.4190141 41.252381,76.0316901 41.7527778,76.0316901 L69.5825397,76.0316901 C70.0829365,76.0316901 70.4678571,76.4190141 70.4678571,76.9225352 L70.4678571,76.9225352 C70.5063492,77.3873239 70.0829365,77.8133803 69.5825397,77.8133803 Z" id="Path" fill="#FFFFFF"></path>
                <path d="M75.240873,72.8169014 L41.7527778,72.8169014 C41.252381,72.8169014 40.8674603,72.4295775 40.8674603,71.9260563 L40.8674603,71.9260563 C40.8674603,71.4225352 41.252381,71.0352113 41.7527778,71.0352113 L75.240873,71.0352113 C75.7412698,71.0352113 76.1261905,71.4225352 76.1261905,71.9260563 L76.1261905,71.9260563 C76.1646825,72.4295775 75.7412698,72.8169014 75.240873,72.8169014 Z" id="Path" fill="#FFFFFF"></path>
                <polygon id="Path" fill="#FFFFFF" points="35.4015873 81.2992958 24.8547619 81.2992958 24.8547619 70.6866197 35.4015873 70.6866197"></polygon>
                <polygon id="Path" fill="#FFFFFF" points="26.125 80.0211268 34.1313492 80.0211268 34.1313492 71.9647887 26.125 71.9647887"></polygon>
                <polygon id="Path" fill="#C3D82E" points="29.8587302 78.3943662 27.2412698 76.2640845 28.2035714 75.2183099 29.7047619 76.4577465 32.3222222 73.5915493 33.4384921 74.4823944"></polygon>
                <ellipse id="Oval" fill="#ED2F4C" transform="translate(34.984761, 24.932472) rotate(-76.885135) translate(-34.984761, -24.932472) " cx="34.9847606" cy="24.9324722" rx="11.2286193" ry="11.1661012"></ellipse>
                <rect id="Rectangle" fill="#FFFFFF" x="29.127381" y="23.2394366" width="11.7015873" height="3.4084507"></rect>
                <polygon id="Rectangle" fill="#FFFFFF" transform="translate(34.991724, 24.934919) rotate(-90.000000) translate(-34.991724, -24.934919) " points="29.1043714 23.2412679 40.8790762 23.2412679 40.8790762 26.6285695 29.1043714 26.6285695"></polygon>
                <circle id="Oval" fill="#A4D72E" transform="translate(81.053036, 75.967084) rotate(-45.000000) translate(-81.053036, -75.967084) " cx="81.0530355" cy="75.9670843" r="24.7196669"></circle>
                <polygon id="Path" fill="#FFFFFF" points="78.3224044 88.9065805 64.9726776 76.155501 70.6721311 70.7518423 78.3224044 78.0215126 93.6994536 63.3655462 99.3989071 68.8080802"></polygon>
            </g>
        </g>
    </g>
</svg>
