<?xml version="1.0" encoding="utf-8"?>
<!-- Generator: Adobe Illustrator 28.0.0, SVG Export Plug-In . SVG Version: 6.00 Build 0)  -->
<svg version="1.1" id="bcservicescard" xmlns="http://www.w3.org/2000/svg" xmlns:xlink="http://www.w3.org/1999/xlink" x="0px"
	 y="0px" viewBox="0 0 168 168" style="enable-background:new 0 0 168 168;" xml:space="preserve">
<style type="text/css">
	.st0{display:none;fill:#D0E3EB;}
	.st1{display:none;fill:#AFCEDF;}
	.st2{fill:#D6D6D6;}
	.st3{fill:#111111;}
	.st4{fill:#DA9D85;}
	.st5{fill:#E5A493;}
	.st6{fill:#DB9D7B;}
	.st7{fill:#FFFFFF;}
	.st8{fill:none;}
	.st9{fill:#333333;}
	.st10{fill:#515151;}
	.st11{fill:#FFEDD9;}
	.st12{fill:#FCBAA0;}
	.st13{opacity:0.15;fill:#333333;enable-background:new    ;}
	.st14{opacity:0.1;fill:#333333;enable-background:new    ;}
	.st15{fill:#F9F9F9;}
	.st16{opacity:0.5;fill:#B0B0B0;enable-background:new    ;}
	.st17{fill:#D78E71;}
	.st18{opacity:0.5;fill:#D4D4D4;enable-background:new    ;}
	.st19{opacity:0.6;}
	.st20{opacity:0.7;}
</style>
<circle id="Oval" class="st0" cx="84" cy="84" r="84"/>
<path id="Path" class="st1" d="M116.3,84.1l-36.9,5l-5.7-5.7L54,118.3l48.2,48.2c31.9-7.1,56.8-32,63.8-63.9L116.3,84.1z"/>
<g id="_141-_Converted_" transform="translate(16 19.496)">
	<g id="Group" transform="translate(0 6.732)">
		<path id="Path-2" class="st2" d="M52.2,92.4c-0.7-1-1.6-1.8-2.5-2.6l-0.5,3.2L52.2,92.4z"/>
		<path id="Path-3" class="st2" d="M20.5,74.2c1.2,0.1,2.3,0.5,3.3,1.1l-2,3.1L20.5,74.2z"/>
		<path id="Path-4" class="st3" d="M53.3,97.1c-1.4-1.5-2.9-2.7-4.7-3.7l-0.9,4.7L53.3,97.1z"/>
		<path id="Path-5" class="st3" d="M15.6,77.4l-0.9,3.7l4,3l2.4-4.3C19.3,78.8,17.5,78,15.6,77.4z"/>
		<path id="Path-6" class="st4" d="M80.2,26.3c0,0,11.4-6.1,13.3-0.7c1.8,5-9.6,9.4-10.7,9.7L80.2,26.3z"/>
		<path id="Path-7" class="st5" d="M86.5,23.8c-2.2,0.6-4.3,1.4-6.3,2.5l2.6,9c1.3-0.4,2.5-0.9,3.7-1.5L86.5,23.8L86.5,23.8z"/>
		<path id="Path-8" class="st5" d="M89.7,69.9c-1.8,1.9-4.2,3.1-6.8,3.3L81,67.1l5.3-2.2L89.7,69.9z"/>
		<path id="Path-9" class="st5" d="M83.7,49.2c0,0,5.2-0.8,6.9,1.8c0.1,0.3,0.3,0.5,0.3,0.8l-7.1,5L83.7,49.2z"/>
		<path id="Path-10" class="st5" d="M82,37.7c0,0,3.5-0.9,5.1-0.3s3.2,3.1,3.2,3.1l-7.9,4.1L82,37.7z"/>
		<path id="Path-11" class="st4" d="M53.6,37.2l-14.5,9.2c0,0-1.6-1-1.7-1.1s1.4-4.3,1.4-7.9c0,0,4.7-3.3,5.3-4.9
			c0.6-1.6,1.7-3.3,1.7-6.4s-2.9-4-3.7-3.5s-0.5,0.8-0.5,0.8l-4.4,4.3c0,0-6.5,2.4-7.1,2.8c-1.1,0.6-1.9,1.6-2.1,2.9
			c0,0-4.5,14.8-4.7,16.9c-0.2,2.4,0.8,19.1,0.6,20.9c-0.2,1.3-9.2,22-15.8,38l3.8,11l27.2,3.3l12-33.6c0,0,19.6-10.9,24.3-19.4
			L53.6,37.2z"/>
		<g id="Path-12" transform="translate(22.699 34.007)">
			<path id="Path_2082" class="st6" d="M22.2,8.7l-5.4,3.4c1.1,0.7,2,4.6,3.7,11.3c0,0,5.7,0.6,5.8-0.4
				C26.8,19.9,22.2,11.6,22.2,8.7z"/>
			<path id="Path_2083" class="st5" d="M49.5,40.5l0-0.3c0,0-24.4-28.3-27.3-31.5l-5.4,3.4c0.9,0.6,1.7,3.3,2.9,7.9
				c0,0,0.7,3.4,0.4,12.4c-0.2,4.9-0.9,10.7,6,10.7c8.1,0,16.8,0,20.8-0.1C47.8,42.2,48.7,41.3,49.5,40.5z"/>
			<path id="Path_2084" class="st5" d="M9.9,0c1.2,2.6,5,4.2,6.1,4.6c0-0.4,0-0.8,0-1.2c0,0,0.2-0.1,0.5-0.4C14.8,3,9.9,0,9.9,0z"/>
			<path id="Path_2085" class="st5" d="M15.4,50.2c0,0,8,6,12.5,7.1l0.5-1.5l0.6-0.3C26.3,55,20.3,53.7,15.4,50.2z"/>
			<path id="Path_2086" class="st5" d="M1.1,37.3c-0.1,0.5-0.5,1.3-1.1,2.8c6.1,5.7,12.2,6.2,12.2,6.2C7.7,44.7,2.8,39.6,1.1,37.3z"
				/>
		</g>
		<g id="Group_30" transform="translate(43.779)">
			<path id="Path-13" class="st7" d="M37.3,0.8H4.2c-1.9,0-3.4,1.5-3.4,3.3v67.8c0,1.9,1.5,3.3,3.4,3.3h33.2c1.9,0,3.4-1.5,3.4-3.3
				V4.1C40.7,2.2,39.2,0.8,37.3,0.8C37.3,0.8,37.3,0.8,37.3,0.8z"/>
			<g id="Group_29">
				<g id="Group_28">
					<rect id="Rectangle" x="1.6" y="4.3" class="st8" width="38.4" height="64.9"/>
					<path id="Shape" class="st9" d="M37.3,0H4.2C1.9,0,0,1.8,0,4.1v67.8C0,74.2,1.9,76,4.2,76h33.2c2.3,0,4.2-1.8,4.2-4.1V4.1
						C41.5,1.8,39.6,0,37.3,0z M40,71.8H1.6V4.3H40L40,71.8L40,71.8z"/>
				</g>
				<line id="Path-14" class="st8" x1="40" y1="4.3" x2="1.6" y2="4.3"/>
			</g>
			<path id="Path-15" class="st10" d="M24.9,2.7h-8.3c-0.3,0-0.5-0.2-0.5-0.5l0,0c0-0.3,0.2-0.5,0.5-0.5h8.3c0.3,0,0.5,0.2,0.5,0.5
				l0,0C25.4,2.5,25.2,2.7,24.9,2.7z"/>
		</g>
		<path id="Path-16" class="st4" d="M82.4,55.6c-0.1,1.4,0.5,2.8,1.6,3.7c1.4,1.2,3.4,1.3,5,0.4c1.2-1.3,2.1-2.7,2.8-4.3
			c0.3-1.7-0.3-3.5-1.5-4.7c-1-0.9-4.2-0.7-5.1,0.1C84.4,51.4,82.2,53.5,82.4,55.6z"/>
		<path id="Path-17" class="st4" d="M86.3,71.1c0.2,0,0.4,0,0.6,0c1-0.2,2.9-0.8,3.2-1.9c0.4-1.3,0.4-2.8,0.1-4.1
			c-0.4-0.8-2.6-3-3.7-3.1s-2.2-0.2-3,1.7c-0.5,1.4-0.5,2.8-0.1,4.2C83.7,68.3,84.6,70.8,86.3,71.1z"/>
		<path id="Path-18" class="st4" d="M85.3,47.2c0,0-1.6-2.5-0.8-7.1s6.2-1.1,6.7,2.6c0.3,1.5-0.2,3.1-1.3,4.1
			C89.1,47.4,87.8,48.1,85.3,47.2z"/>
		<path id="Path-19" class="st11" d="M85.3,53.2c0,0,3.2,2.2,2.4,5.5c0.6-0.6,1-1.4,1.2-2.2c0.2-1-0.2-2.1-1-2.7
			C87.1,53.3,86.2,53.1,85.3,53.2z"/>
		<path id="Path-20" class="st11" d="M86.5,63.5c0,0,1.4,1.6,1.2,3c-0.1,0.9-0.6,1.7-1.2,2.2c0,0,2-1.1,1.9-2.5
			C88.2,65.1,87.5,64.1,86.5,63.5z"/>
		<path id="Path-21" class="st11" d="M41.5,23.4l-4.3,4.3c0,0,0,0-0.1,0c0.9-0.1,1.7-0.3,2.5-0.7C42.2,26,41.7,24,41.5,23.4z"/>
		<path id="Path-22" class="st12" d="M45.6,26.1c0.1-1.6-0.9-3-2.4-3.5L43.8,33C44.3,32.3,45.8,31.1,45.6,26.1z"/>
		<path id="Path-23" class="st7" d="M16.4,83.3l4.1-9.1c0,0,8.7,13.1,31.7,18.2l-2,6C50.2,98.4,33,101.7,16.4,83.3z"/>
		<path id="Path-24" class="st13" d="M18.7,78.2l-2.3,5.1c8.1,9,21.7,10.6,28,12.1C33.2,90.8,27.6,88.6,18.7,78.2z"/>
		<path id="Path-25" class="st14" d="M46.1,90.8l-2.7,7.6c2.3,0.3,4.6,0.3,6.9,0l2-6C50,91.9,48,91.4,46.1,90.8z"/>
		<path id="Path-26" class="st15" d="M15.6,77.4L0,107.8c3,3.8,5.4,6.7,7.2,8.7c2.4,2.5,4.9,4.8,7.5,7c3.8,3,7.8,5.7,11.9,8.2
			c3.7,2,7.5,3.8,11.5,5.2l15.1-39.8C28.1,94.2,15.6,77.4,15.6,77.4z"/>
		<path id="Path-27" class="st16" d="M53.3,97.1c-2.1-0.2-4.1-0.6-6-1l-10,27.3h6.5L53.3,97.1z"/>
	</g>
	<g id="Group-2" transform="translate(60.351 56.364)">
		<path id="Path-28" class="st2" d="M58.7,49c-1.4,0.4-2.6,1-3.7,1.9l1.7,3L58.7,49z"/>
		<path id="Path-29" class="st2" d="M30.2,66.1c0.8-1,1.7-2,2.6-2.8l1.9,2.8L30.2,66.1z"/>
		<path id="Path-30" class="st4" d="M11.8,31.1c-1.2-0.2-2.4-0.1-3.5,0.4c-0.5,0.1-0.8,0.6-0.7,1.1c0,0.2,0.2,0.4,0.3,0.5
			c0.3,1.8,0.4,3.7,0.5,5.5c-0.2,1.1-1.3,3.1-0.3,6.8C9,48.6,21.1,58.8,28.6,60.9L11.8,31.1z"/>
		<path id="Path-31" class="st11" d="M9.1,37.9c0.5-1.6,0.6-4.1-1.2-5C8,33,8,33,8,33c0.3,1.8,0.4,3.7,0.5,5.5c0,0.1,0,0.1,0,0.2
			C8.8,38.6,9,38.3,9.1,37.9z"/>
		<path id="Path-32" class="st17" d="M28.6,60.9L11.8,31.1C11.4,31,11,30.9,10.5,31c1,3.4,5.2,18,9.6,25.7
			C22.7,58.5,25.6,59.9,28.6,60.9z"/>
		<path id="Path-33" class="st13" d="M8.2,26.4h9.2C16.1,23.6,8.6,6.1,7,3.2C5.8,0.9,3.8,0.2,2,1C0.2,1.7-0.4,4,0.2,5.9
			C0.7,7.4,5.3,19.1,8.2,26.4z"/>
		<path id="Path-34" class="st4" d="M22.4,57.1c5.5,4.8,8.4,4.8,9.6,5.9c1.3,1.2,3.8,6.4,5.8,10.8L51.6,73l9.6-2.4
			c0.2-7.1-1.6-14.1-5.2-20.3c0,0-1.3-15.6-9.7-24.4c-1.6-1.7-3.6-3-5.6-2.9s-3.9,1.1-4.3,0.9c-1.8-1.1-5.8-0.6-8.9,0.8
			c0,0-3.9-1.4-8.6,1.4C18.7,26.2,10,5.6,8.3,2.5c-1.2-2.3-3.2-2.9-5-2.1C1.5,1,0.9,3.3,1.5,5.2S10,27.4,11.6,31
			C11.6,31,17.8,53.1,22.4,57.1z"/>
		<path id="Path-35" class="st17" d="M58.7,55.2c-0.9-1.6-1.8-3.3-2.7-4.9c0,0-0.1-1.6-0.6-4c0,0,0,0,0,0
			C52.7,54.2,44.8,60,35.7,64.5c0.4,0.8,0.1,5.3,0.5,6.1c2.3-1.3,4.6-2.7,6.9-4.3C48.5,62.9,53.7,59.1,58.7,55.2z"/>
		<path id="Path-36" class="st3" d="M29.3,70.3c1.3-1.2,2.8-2.2,4.3-3.1l0.8,4L29.3,70.3z"/>
		<path id="Path-37" class="st3" d="M62.8,51.8l1.3,3.3l-3.6,2.8l-2.3-3.9C59.7,53.1,61.2,52.4,62.8,51.8z"/>
		<path id="Path-38" class="st7" d="M62.6,57.1l-3.9-8.2c0,0-7.7,12-28.5,17.1l1.9,5.4C32.1,71.5,47.8,74.1,62.6,57.1z"/>
		<path id="Path-39" class="st13" d="M60.4,52.6l2.2,4.6c-7.2,8.3-19.5,10-25.2,11.5C47.4,64.2,52.5,62.2,60.4,52.6z"/>
		<path id="Path-40" class="st14" d="M35.7,64.5l2.6,6.9c-2.1,0.3-4.2,0.4-6.2,0.1l-1.9-5.4C32.2,65.6,34,65,35.7,64.5z"/>
		<path id="Path-41" class="st15" d="M68.6,66.1l-5.8-14.3c0,0-10.7,15.4-33.5,18.6l1.5,3.5c2.4,7.9,4.4,12.4,6,13.4
			c1.5,1.1,4.3-1.2,6.3-1.9c5.2-1.7,12.9-7.3,23.2-16.7L68.6,66.1z"/>
		<path id="Path-42" class="st18" d="M35.9,73.8l-2-4.3c-1.5,0.3-3,0.6-4.7,0.8l1.5,3.5L35.9,73.8z"/>
		<path id="Path-43" class="st11" d="M2.8,5.4c-0.4-1.2-0.6-3.3,1-4c1.9-0.8,3.4,1.4,3.7,1.8C5.8,3.3,4.1,4.1,2.8,5.4z"/>
		<g id="Path-44" transform="translate(6.882 13.57)" class="st19">
			<path id="Path_2087" class="st6" d="M0,1.9c0,0,2-2.3,4.5-1.9C2.9,0.3,1.3,0.9,0,1.9z"/>
			<path id="Path_2088" class="st6" d="M1.1,2.5C2,1.6,3.2,1.1,4.5,1.1C3.3,1.3,2.1,1.8,1.1,2.5z"/>
		</g>
	</g>
	<g id="Group-3" transform="translate(81.786)" class="st20">
		<g id="Path-45">
			<path id="Path_2089" class="st7" d="M0.6,4.2C0.3,4.2,0,4.1,0,3.8V0.4C0,0.2,0.3,0,0.6,0c0.3,0,0.5,0.2,0.6,0.4v3.4
				C1.1,4.1,0.8,4.2,0.6,4.2z"/>
		</g>
		<g id="Path-46" transform="translate(5.459 2.021)">
			<path id="Path_2090" class="st7" d="M0.4,4.4c-0.1,0-0.3-0.1-0.4-0.2C-0.1,4.1,0,3.8,0.2,3.7c0,0,0,0,0,0l4.7-3.6
				C5.1-0.1,5.4,0,5.5,0.2c0.1,0.2,0.1,0.4-0.1,0.6c0,0,0,0,0,0L0.7,4.3C0.6,4.4,0.5,4.4,0.4,4.4z"/>
		</g>
		<g id="Path-47" transform="translate(6.889 10.93)">
			<path id="Path_2091" class="st7" d="M4.1,1.1H0.4C0.2,1.1,0,0.8,0,0.6C0,0.3,0.2,0,0.4,0h3.7c0.3,0,0.5,0.3,0.4,0.6
				C4.6,0.8,4.4,1.1,4.1,1.1z"/>
		</g>
	</g>
</g>
<g id="bcservicescard-2" transform="translate(44 19.453)">
	
		<image style="overflow:visible;enable-background:new    ;" width="430" height="430" id="Rectangle_619" xlink:href="FAAD935F.png"  transform="matrix(9.302326e-02 0 0 9.302326e-02 0 -0.453)">
	</image>
</g>
</svg>
