<?xml version="1.0" encoding="utf-8"?>
<!-- Generator: Adobe Illustrator 28.0.0, SVG Export Plug-In . SVG Version: 6.00 Build 0)  -->
<svg version="1.1" id="enrolment" xmlns="http://www.w3.org/2000/svg" xmlns:xlink="http://www.w3.org/1999/xlink" x="0px" y="0px"
	 viewBox="0 0 168 168" style="enable-background:new 0 0 168 168;" xml:space="preserve">
<style type="text/css">
	.st0{display:none;fill:#D0E3EB;}
	.st1{display:none;fill:#AFCEDF;}
	.st2{fill:#4584BC;}
	.st3{fill:#FFFFFF;}
	.st4{fill:#C3D82E;}
	.st5{fill:#ED2F4C;}
	.st6{fill:#CDE3E8;}
	.st7{fill:#F74D11;}
	.st8{fill:#FF7C24;}
	.st9{fill:#E01212;}
	.st10{fill:#BC0202;}
</style>
<g id="Group-7" transform="translate(0.338 0.453)">
	<circle id="Oval" class="st0" cx="83.7" cy="83.5" r="84"/>
	<path id="Path" class="st1" d="M114.2,51L79.2,88.8l-5.6-5.7L54,117.9l47.7,48.1c31.7-7.2,56.4-32.1,63.3-63.8L114.2,51z"/>
	<path id="Path-2" class="st2" d="M126.9,134.7c0,4-3.3,7.3-7.3,7.3H39.3c-4.1,0-7.3-3.3-7.3-7.4c0,0,0,0,0,0V21.4
		c0-4.1,3.3-7.4,7.3-7.4c0,0,0,0,0,0h80.3c4.1,0,7.3,3.3,7.3,7.4c0,0,0,0,0,0v87.3L126.9,134.7z"/>
	<path id="Path-3" class="st3" d="M109.8,33H78.2c-0.7-0.1-1.3-0.7-1.2-1.5c0,0,0,0,0,0l0,0c-0.1-0.7,0.4-1.4,1.2-1.5c0,0,0,0,0,0
		h31.6c0.7,0.1,1.3,0.7,1.2,1.5c0,0,0,0,0,0l0,0C111.1,32.2,110.6,32.9,109.8,33C109.8,33,109.8,33,109.8,33z"/>
	<path id="Path-4" class="st3" d="M109.8,40H78.2c-0.7-0.1-1.3-0.7-1.2-1.5c0,0,0,0,0,0l0,0c-0.1-0.7,0.4-1.4,1.2-1.5c0,0,0,0,0,0
		h31.6c0.7,0.1,1.3,0.7,1.2,1.5c0,0,0,0,0,0l0,0C111.1,39.2,110.6,39.9,109.8,40C109.9,40,109.8,40,109.8,40z"/>
	<path id="Path-5" class="st3" d="M109.8,52H78.2c-0.7-0.1-1.3-0.7-1.2-1.5c0,0,0,0,0,0l0,0c-0.1-0.7,0.4-1.4,1.2-1.5c0,0,0,0,0,0
		h31.6c0.7,0.1,1.3,0.7,1.2,1.5c0,0,0,0,0,0l0,0C111.1,51.2,110.6,51.9,109.8,52C109.8,52,109.8,52,109.8,52z"/>
	<path id="Path-6" class="st3" d="M109.8,59H78.2c-0.7-0.1-1.3-0.7-1.2-1.5c0,0,0,0,0,0l0,0c-0.1-0.7,0.4-1.4,1.2-1.5c0,0,0,0,0,0
		h31.6c0.7,0.1,1.3,0.7,1.2,1.5c0,0,0,0,0,0l0,0C111.1,58.2,110.6,58.9,109.8,59C109.9,59,109.8,59,109.8,59z"/>
	<path id="Path-7" class="st3" d="M109.8,68H42.2c-0.7-0.1-1.3-0.7-1.2-1.5c0,0,0,0,0,0l0,0c-0.1-0.7,0.4-1.4,1.2-1.5c0,0,0,0,0,0
		h67.6c0.7,0.1,1.3,0.7,1.2,1.5c0,0,0,0,0,0l0,0C111.1,67.2,110.5,67.9,109.8,68C109.8,68,109.8,68,109.8,68z"/>
	<path id="Path-8" class="st3" d="M109.8,74H42.2c-0.7-0.1-1.3-0.7-1.2-1.5c0,0,0,0,0,0l0,0c-0.1-0.7,0.4-1.4,1.2-1.5c0,0,0,0,0,0
		h67.6c0.7,0.1,1.3,0.7,1.2,1.5c0,0,0,0,0,0l0,0C111.1,73.2,110.6,73.9,109.8,74C109.9,74,109.8,74,109.8,74z"/>
	<path id="Path-9" class="st3" d="M95.8,93H65.2c-0.7-0.1-1.3-0.8-1.2-1.5c0,0,0,0,0,0l0,0c-0.1-0.7,0.4-1.4,1.2-1.5c0,0,0,0,0,0
		h30.6c0.7,0.1,1.3,0.8,1.2,1.5c0,0,0,0,0,0l0,0C97.1,92.2,96.5,92.9,95.8,93z"/>
	<path id="Path-10" class="st3" d="M109.8,86H65.2c-0.7-0.1-1.3-0.8-1.2-1.5c0,0,0,0,0,0l0,0c-0.1-0.7,0.4-1.4,1.2-1.5c0,0,0,0,0,0
		h44.6c0.7,0.1,1.3,0.8,1.2,1.5c0,0,0,0,0,0l0,0C111.1,85.2,110.6,85.9,109.8,86z"/>
	<path id="Path-11" class="st3" d="M57,97H43V83h14V97z"/>
	<path id="Path-12" class="st3" d="M45,95h10V85H45V95z"/>
	<path id="Path-13" class="st4" d="M49.4,94L46,90.9l1.2-1.5l1.9,1.7l3.4-4.1l1.4,1.3L49.4,94z"/>
	<path id="Path-14" class="st3" d="M102.8,115H65.2c-0.7-0.1-1.3-0.7-1.2-1.5c0,0,0,0,0,0l0,0c-0.1-0.7,0.4-1.4,1.2-1.5c0,0,0,0,0,0
		h37.6c0.7,0.1,1.3,0.7,1.2,1.5c0,0,0,0,0,0l0,0C104.1,114.2,103.6,114.9,102.8,115C102.8,115,102.8,115,102.8,115z"/>
	<path id="Path-15" class="st3" d="M109.8,109H65.2c-0.7-0.1-1.3-0.8-1.2-1.5c0,0,0,0,0,0l0,0c-0.1-0.7,0.4-1.4,1.2-1.5c0,0,0,0,0,0
		h44.6c0.7,0.1,1.3,0.8,1.2,1.5c0,0,0,0,0,0l0,0C111.1,108.2,110.6,108.9,109.8,109C109.9,109,109.8,109,109.8,109z"/>
	<path id="Path-16" class="st3" d="M57,120H43v-14h14V120z"/>
	<path id="Path-17" class="st3" d="M45,118h10v-10H45V118z"/>
	<path id="Path-18" class="st4" d="M49.4,116l-3.4-3.1l1.2-1.5l1.9,1.8l3.4-4.2l1.4,1.3L49.4,116z"/>
	
		<ellipse id="Oval-2" transform="matrix(0.2269 -0.9739 0.9739 0.2269 0.2587 88.6395)" class="st5" cx="56" cy="44.2" rx="15.1" ry="15"/>
	<rect id="Rectangle" x="47.7" y="40.5" class="st3" width="16" height="5"/>
	<path id="Rectangle-2" class="st3" d="M53.5,51.5v-16h5v16H53.5z"/>
	<g id="Group" transform="translate(95.444 86.082)">
		<g id="Path-19">
			<g id="Group_24">
				<path id="Path_2067" class="st6" d="M40.4,11.5v-7C40.4,2.1,38,0,35.2,0h-30C2.4,0,0,2.1,0,4.5v7L40.4,11.5z"/>
				<g id="Group_23" transform="translate(2.605 2.298)">
					<path id="Path_2068" class="st3" d="M34.8,6.9c0,0.3-0.5,0.5-0.9,0.5l0,0C33.4,7.4,33,7,33,6.9V0.5C33,0.2,33.4,0,33.9,0l0,0
						c0.5,0,0.9,0.2,0.9,0.5V6.9z"/>
					<path id="Path_2069" class="st3" d="M31.3,6.9c0,0.3-0.5,0.5-0.9,0.5l0,0c-0.5,0-0.9-0.3-0.9-0.5V0.5c0-0.3,0.5-0.5,0.9-0.5
						l0,0c0.5,0,0.9,0.2,0.9,0.5V6.9z"/>
					<path id="Path_2070" class="st3" d="M27.5,6.9c0,0.3-0.5,0.5-0.9,0.5l0,0c-0.5,0-0.9-0.3-0.9-0.5V0.5c0-0.3,0.5-0.5,0.9-0.5
						l0,0c0.5,0,0.9,0.2,0.9,0.5V6.9z"/>
					<path id="Path_2071" class="st3" d="M23.9,6.9c0,0.3-0.5,0.5-0.9,0.5l0,0C22.5,7.4,22,7,22,6.9V0.5C22,0.2,22.5,0,23,0l0,0
						c0.5,0,0.9,0.2,0.9,0.5V6.9z"/>
					<path id="Path_2072" class="st3" d="M20.2,6.9c0,0.3-0.5,0.5-0.9,0.5l0,0c-0.5,0-0.9-0.3-0.9-0.5V0.5c0-0.3,0.5-0.5,0.9-0.5
						l0,0c0.5,0,0.9,0.2,0.9,0.5V6.9z"/>
					<path id="Path_2073" class="st3" d="M16.6,6.9c0,0.3-0.5,0.5-0.9,0.5l0,0c-0.5,0-0.9-0.3-0.9-0.5V0.5c0-0.3,0.5-0.5,0.9-0.5
						l0,0c0.5,0,0.9,0.2,0.9,0.5V6.9z"/>
					<path id="Path_2074" class="st3" d="M12.8,6.9c0,0.3-0.5,0.5-0.9,0.5l0,0c-0.5,0-0.9-0.3-0.9-0.5V0.5c0-0.3,0.5-0.5,0.9-0.5
						l0,0c0.5,0,0.9,0.2,0.9,0.5V6.9z"/>
					<path id="Path_2075" class="st3" d="M9.2,6.9c0,0.3-0.5,0.5-0.9,0.5l0,0C7.8,7.4,7.4,7,7.4,6.9V0.5C7.4,0.2,7.8,0,8.3,0l0,0
						c0.5,0,0.9,0.2,0.9,0.5V6.9z"/>
					<path id="Path_2076" class="st3" d="M5.5,6.9c0,0.3-0.5,0.5-0.9,0.5l0,0C4,7.4,3.6,7,3.6,6.9V0.5C3.6,0.2,4,0,4.5,0l0,0
						C5,0,5.5,0.2,5.5,0.5V6.9z"/>
					<path id="Path_2077" class="st3" d="M1.9,6.9c0,0.3-0.5,0.5-0.9,0.5l0,0C0.5,7.4,0,7,0,6.9V0.5C0,0.2,0.5,0,0.9,0l0,0
						c0.5,0,0.9,0.2,0.9,0.5V6.9z"/>
				</g>
			</g>
		</g>
		<g id="Rectangle-3" transform="translate(3.68 11.991)">
			<rect id="Rectangle_614" x="0" y="0" class="st7" width="34.2" height="50.7"/>
			<rect id="Rectangle_615" x="17" y="3.5" class="st8" width="17" height="47.2"/>
			<g id="Group_25" transform="translate(9.456 16.321)">
				<rect id="Rectangle_616" x="0" y="0" class="st3" width="20.3" height="13.1"/>
				<rect id="Rectangle_617" x="0" y="0" class="st6" width="7.7" height="13.1"/>
			</g>
		</g>
	</g>
	<g id="Group-2" transform="translate(107.88 154.323) rotate(180)">
		<g id="Path-20">
			<g id="Group_26">
				<path id="Path_2078" class="st3" d="M37.4,5.6c0-3.1-2.8-5.6-6.3-5.6H6.3C2.8,0,0,2.4,0,5.6l0,0c0,3.1,2.8,5.6,6.3,5.6h24.8
					C34.7,11.2,37.4,8.7,37.4,5.6L37.4,5.6z"/>
				<path id="Path_2079" class="st9" d="M37.4,5.6c0,3.1-2.8,5.6-6.3,5.6H18.7V0h12.4C34.7,0,37.4,2.6,37.4,5.6z"/>
			</g>
			<g id="Group_27" transform="translate(0 0)">
				<path id="Path_2080" class="st6" d="M6.3,0h12.6v5.6H0C0,2.6,2.8,0,6.3,0z"/>
				<path id="Path_2081" class="st10" d="M31.1,0c3.5,0,6.3,2.4,6.3,5.6H18.7V0H31.1z"/>
			</g>
		</g>
	</g>
</g>
</svg>
