<svg id="enrolment" xmlns="http://www.w3.org/2000/svg" width="168" height="168" viewBox="0 0 168 168">
  <g id="Group-7" transform="translate(0.338 0.453)">
    <circle id="Oval" cx="84" cy="84" r="84" transform="translate(-0.338 -0.453)" fill="#d0e3eb"/>
    <path id="Path" d="M114.246,51,79.169,88.786,73.531,83.1,54,117.9,101.72,166A83.76,83.76,0,0,0,165,102.161Z" fill="#afcedf"/>
    <path id="Path-2" data-name="Path" d="M126.9,134.66a7.346,7.346,0,0,1-7.332,7.34H39.332A7.356,7.356,0,0,1,32,134.608V21.392A7.357,7.357,0,0,1,39.332,14h80.336A7.357,7.357,0,0,1,127,21.392v87.294Z" fill="#4584bc"/>
    <path id="Path-3" data-name="Path" d="M109.805,33H78.192A1.35,1.35,0,0,1,77,31.5h0A1.35,1.35,0,0,1,78.192,30h31.613A1.351,1.351,0,0,1,111,31.5h0A1.355,1.355,0,0,1,109.805,33Z" fill="#fff"/>
    <path id="Path-4" data-name="Path" d="M109.805,40H78.192A1.35,1.35,0,0,1,77,38.5h0A1.35,1.35,0,0,1,78.192,37h31.613A1.351,1.351,0,0,1,111,38.5h0A1.317,1.317,0,0,1,109.805,40Z" fill="#fff"/>
    <path id="Path-5" data-name="Path" d="M109.805,52H78.192A1.35,1.35,0,0,1,77,50.5h0A1.35,1.35,0,0,1,78.192,49h31.613A1.351,1.351,0,0,1,111,50.5h0A1.355,1.355,0,0,1,109.805,52Z" fill="#fff"/>
    <path id="Path-6" data-name="Path" d="M109.805,59H78.192A1.35,1.35,0,0,1,77,57.5h0A1.35,1.35,0,0,1,78.192,56h31.613A1.351,1.351,0,0,1,111,57.5h0A1.317,1.317,0,0,1,109.805,59Z" fill="#fff"/>
    <path id="Path-7" data-name="Path" d="M109.8,68H42.2A1.352,1.352,0,0,1,41,66.5h0A1.352,1.352,0,0,1,42.2,65h67.6a1.352,1.352,0,0,1,1.2,1.5h0A1.356,1.356,0,0,1,109.8,68Z" fill="#fff"/>
    <path id="Path-8" data-name="Path" d="M109.8,74H42.2A1.352,1.352,0,0,1,41,72.5h0A1.352,1.352,0,0,1,42.2,71h67.6a1.352,1.352,0,0,1,1.2,1.5h0A1.319,1.319,0,0,1,109.8,74Z" fill="#fff"/>
    <path id="Path-9" data-name="Path" d="M95.812,93H65.188A1.349,1.349,0,0,1,64,91.5h0A1.349,1.349,0,0,1,65.188,90H95.812A1.349,1.349,0,0,1,97,91.5h0A1.385,1.385,0,0,1,95.812,93Z" fill="#fff"/>
    <path id="Path-10" data-name="Path" d="M109.817,86H65.18A1.347,1.347,0,0,1,64,84.5h0A1.347,1.347,0,0,1,65.18,83h44.637A1.346,1.346,0,0,1,111,84.5h0A1.351,1.351,0,0,1,109.817,86Z" fill="#fff"/>
    <path id="Path-11" data-name="Path" d="M57,97H43V83H57Z" fill="#fff"/>
    <path id="Path-12" data-name="Path" d="M45,95H55V85H45Z" fill="#fff"/>
    <path id="Path-13" data-name="Path" d="M49.379,94,46,90.92l1.242-1.512,1.938,1.736L52.559,87,54,88.288Z" fill="#c3d82e"/>
    <path id="Path-14" data-name="Path" d="M102.8,115H65.2a1.351,1.351,0,0,1-1.2-1.5h0a1.351,1.351,0,0,1,1.2-1.5h37.6a1.351,1.351,0,0,1,1.2,1.5h0A1.355,1.355,0,0,1,102.8,115Z" fill="#fff"/>
    <path id="Path-15" data-name="Path" d="M109.817,109H65.18A1.346,1.346,0,0,1,64,107.5h0a1.346,1.346,0,0,1,1.18-1.5h44.637a1.346,1.346,0,0,1,1.18,1.5h0A1.314,1.314,0,0,1,109.817,109Z" fill="#fff"/>
    <path id="Path-16" data-name="Path" d="M57,120H43V106H57Z" fill="#fff"/>
    <path id="Path-17" data-name="Path" d="M45,118H55V108H45Z" fill="#fff"/>
    <path id="Path-18" data-name="Path" d="M49.379,116,46,112.895l1.242-1.524,1.938,1.806L52.559,109,54,110.3Z" fill="#c3d82e"/>
    <ellipse id="Oval-2" data-name="Oval" cx="15.091" cy="15.007" rx="15.091" ry="15.007" transform="translate(37.922 55.449) rotate(-76.885)" fill="#ed2f4c"/>
    <rect id="Rectangle" width="16" height="5" transform="translate(47.662 40.547)" fill="#fff"/>
    <path id="Rectangle-2" data-name="Rectangle" d="M0,0H16V5H0Z" transform="translate(53.5 51.5) rotate(-90)" fill="#fff"/>
    <g id="Group" transform="translate(95.444 86.082)">
      <g id="Path-19" data-name="Path">
        <g id="Group_24" data-name="Group 24">
          <path id="Path_2067" data-name="Path 2067" d="M40.4,11.489V4.459c0-2.4-2.363-4.459-5.2-4.459H5.2C2.363,0,0,2.058,0,4.459v7.031Z" fill="#cde3e8"/>
          <g id="Group_23" data-name="Group 23" transform="translate(2.605 2.298)">
            <path id="Path_2068" data-name="Path 2068" d="M35.467,6.872c0,.344-.474.515-.948.515h0c-.474,0-.948-.344-.948-.515V.515c0-.344.474-.515.948-.515h0c.474,0,.948.172.948.515Z" transform="translate(-0.618)" fill="#fff"/>
            <path id="Path_2069" data-name="Path 2069" d="M31.911,6.872c0,.344-.474.515-.948.515h0c-.474,0-.948-.344-.948-.515V.515c0-.344.474-.515.948-.515h0c.474,0,.948.172.948.515Z" transform="translate(-0.618)" fill="#fff"/>
            <path id="Path_2070" data-name="Path 2070" d="M28.118,6.872c0,.344-.474.515-.948.515h0c-.474,0-.948-.344-.948-.515V.515c0-.344.474-.515.948-.515h0c.474,0,.948.172.948.515Z" transform="translate(-0.618)" fill="#fff"/>
            <path id="Path_2071" data-name="Path 2071" d="M24.562,6.872c0,.344-.474.515-.948.515h0c-.474,0-.948-.344-.948-.515V.515c0-.344.474-.515.948-.515h0c.474,0,.948.172.948.515Z" transform="translate(-0.618)" fill="#fff"/>
            <path id="Path_2072" data-name="Path 2072" d="M20.769,6.872c0,.344-.474.515-.948.515h0c-.474,0-.948-.344-.948-.515V.515c0-.344.474-.515.948-.515h0c.474,0,.948.172.948.515Z" transform="translate(-0.618)" fill="#fff"/>
            <path id="Path_2073" data-name="Path 2073" d="M17.213,6.872c0,.344-.474.515-.948.515h0c-.474,0-.948-.344-.948-.515V.515c0-.344.474-.515.948-.515h0c.474,0,.948.172.948.515Z" transform="translate(-0.618)" fill="#fff"/>
            <path id="Path_2074" data-name="Path 2074" d="M13.42,6.872c0,.344-.474.515-.948.515h0c-.474,0-.948-.344-.948-.515V.515C11.523.172,12,0,12.472,0h0c.474,0,.948.172.948.515Z" transform="translate(-0.618)" fill="#fff"/>
            <path id="Path_2075" data-name="Path 2075" d="M9.864,6.872c0,.344-.474.515-.948.515h0c-.474,0-.948-.344-.948-.515V.515c0-.344.474-.515.948-.515h0c.474,0,.948.172.948.515Z" transform="translate(-0.618)" fill="#fff"/>
            <path id="Path_2076" data-name="Path 2076" d="M6.071,6.872c0,.344-.474.515-.948.515h0c-.474,0-.948-.344-.948-.515V.515c0-.344.474-.515.948-.515h0c.474,0,.948.172.948.515Z" transform="translate(-0.618)" fill="#fff"/>
            <path id="Path_2077" data-name="Path 2077" d="M2.515,6.872c0,.344-.474.515-.948.515h0c-.474,0-.948-.344-.948-.515V.515C.618.172,1.092,0,1.567,0h0c.474,0,.948.172.948.515Z" transform="translate(-0.618)" fill="#fff"/>
          </g>
        </g>
      </g>
      <g id="Rectangle-3" data-name="Rectangle" transform="translate(3.68 11.991)">
        <rect id="Rectangle_614" data-name="Rectangle 614" width="34.156" height="50.737" fill="#f74d11"/>
        <rect id="Rectangle_615" data-name="Rectangle 615" width="16.981" height="47.189" transform="translate(16.981 3.548)" fill="#ff7c24"/>
        <g id="Group_25" data-name="Group 25" transform="translate(9.456 16.321)">
          <rect id="Rectangle_616" data-name="Rectangle 616" width="20.262" height="13.128" fill="#fff"/>
          <rect id="Rectangle_617" data-name="Rectangle 617" width="7.719" height="13.128" fill="#cde3e8"/>
        </g>
      </g>
    </g>
    <g id="Group-2" data-name="Group" transform="translate(107.88 154.323) rotate(180)">
      <g id="Path-20" data-name="Path">
        <g id="Group_26" data-name="Group 26">
          <path id="Path_2078" data-name="Path 2078" d="M37.413,5.579c0-3.138-2.757-5.579-6.3-5.579H6.3C2.757,0,0,2.441,0,5.579H0c0,3.138,2.757,5.579,6.3,5.579H31.112c3.544,0,6.3-2.441,6.3-5.579Z" fill="#fff"/>
          <path id="Path_2079" data-name="Path 2079" d="M18.706,5.579c0,3.138-2.757,5.579-6.3,5.579H0V0H12.405C15.95,0,18.706,2.615,18.706,5.579Z" transform="translate(18.707)" fill="#e01212"/>
        </g>
        <g id="Group_27" data-name="Group 27" transform="translate(0 0)">
          <path id="Path_2080" data-name="Path 2080" d="M6.3,0H18.9V5.579H0C0,2.615,2.757,0,6.3,0Z" fill="#cde3e8"/>
          <path id="Path_2081" data-name="Path 2081" d="M12.405,0c3.544,0,6.3,2.441,6.3,5.579H0V0Z" transform="translate(18.707)" fill="#bc0202"/>
        </g>
      </g>
    </g>
  </g>
</svg>
