<svg xmlns="http://www.w3.org/2000/svg" width="127.303" height="134.561" viewBox="0 0 127.303 134.561">
  <g id="Group_43" data-name="Group 43" transform="translate(-10441 -582.796)">
    <circle id="Oval" cx="62.5" cy="62.5" r="62.5" transform="translate(10441 582.796)" fill="#5090ff"/>
    <circle id="Oval-2" data-name="Oval" cx="62.5" cy="62.5" r="62.5" transform="translate(10441 582.796)" fill="#d0e3eb"/>
    <path id="Path" d="M85.092,38,75.725,71.013,58.861,66.258l-4.216-4.25,1.687,28.749L75.725,124a62.638,62.638,0,0,0,47.322-47.741Z" transform="translate(10441 582.796)" fill="#afcedf"/>
    <g id="Group_42" data-name="Group 42" transform="translate(-99.742 106.419)">
      <path id="Oval-3" data-name="Oval" d="M30.535.8a28.68,28.68,0,0,1,29.11,29.11A30.185,30.185,0,0,1,29.912,59.645,28.68,28.68,0,0,1,.8,30.535,30.185,30.185,0,0,1,30.535.8Z" transform="translate(10583.691 527.192) rotate(-45)" fill="#2e77d7"/>
      <path id="Path_2177" data-name="Path 2177" d="M0-5.71c2.046,0,3.8,4.941,7.026,8.117C9.078,4.423,13,4.575,13,6,13,9.314.853,17.934-2.737,17.934S0,9.314,0,6-3.59-5.71,0-5.71Z" transform="translate(10612.601 511.828)" fill="#2ed76c"/>
      <path id="Path_2178" data-name="Path 2178" d="M0-5.71C1.277-5.71.372-2.369,2.025.111c.715,1.075,5.611-2.018,6.823-.823C10.9,1.3,13,4.575,13,6c0,1.511-5.529.94-8.857,3.522C.7,12.2-.784,17.934-2.737,17.934c-3.59,0-12.294.431-12.294-2.883S-3.59-5.71,0-5.71Z" transform="translate(10635.072 530.145)" fill="#2ed76c"/>
    </g>
    <g id="Group_41" data-name="Group 41" transform="translate(-220)">
      <g id="Rectangle_758" data-name="Rectangle 758" transform="translate(10668 588)" fill="#bbc0df" stroke="#632ea8" stroke-width="1">
        <rect width="36" height="38" rx="5" stroke="none"/>
        <rect x="0.5" y="0.5" width="35" height="37" rx="4.5" fill="none"/>
      </g>
      <g id="Rectangle_759" data-name="Rectangle 759" transform="translate(10674 613)" fill="rgba(43,136,177,0.35)" stroke="#2b88b1" stroke-width="1">
        <rect width="6" height="6" rx="1" stroke="none"/>
        <rect x="0.5" y="0.5" width="5" height="5" rx="0.5" fill="none"/>
      </g>
      <g id="Rectangle_760" data-name="Rectangle 760" transform="translate(10692 613)" fill="rgba(43,136,177,0.35)" stroke="#2b88b1" stroke-width="1">
        <rect width="6" height="6" rx="1" stroke="none"/>
        <rect x="0.5" y="0.5" width="5" height="5" rx="0.5" fill="none"/>
      </g>
      <g id="Rectangle_761" data-name="Rectangle 761" transform="translate(10683 613)" fill="rgba(43,136,177,0.35)" stroke="#2b88b1" stroke-width="1">
        <rect width="6" height="6" rx="1" stroke="none"/>
        <rect x="0.5" y="0.5" width="5" height="5" rx="0.5" fill="none"/>
      </g>
      <g id="Rectangle_762" data-name="Rectangle 762" transform="translate(10674 604)" fill="rgba(43,136,177,0.35)" stroke="#2b88b1" stroke-width="1">
        <rect width="6" height="6" rx="1" stroke="none"/>
        <rect x="0.5" y="0.5" width="5" height="5" rx="0.5" fill="none"/>
      </g>
      <g id="Rectangle_763" data-name="Rectangle 763" transform="translate(10692 604)" fill="rgba(43,136,177,0.35)" stroke="#2b88b1" stroke-width="1">
        <rect width="6" height="6" rx="1" stroke="none"/>
        <rect x="0.5" y="0.5" width="5" height="5" rx="0.5" fill="none"/>
      </g>
      <g id="Rectangle_764" data-name="Rectangle 764" transform="translate(10683 604)" fill="rgba(43,136,177,0.35)" stroke="#2b88b1" stroke-width="1">
        <rect width="6" height="6" rx="1" stroke="none"/>
        <rect x="0.5" y="0.5" width="5" height="5" rx="0.5" fill="none"/>
      </g>
      <g id="Rectangle_765" data-name="Rectangle 765" transform="translate(10674 595)" fill="rgba(43,136,177,0.35)" stroke="#2b88b1" stroke-width="1">
        <rect width="6" height="6" rx="1" stroke="none"/>
        <rect x="0.5" y="0.5" width="5" height="5" rx="0.5" fill="none"/>
      </g>
      <g id="Rectangle_766" data-name="Rectangle 766" transform="translate(10692 595)" fill="rgba(43,136,177,0.35)" stroke="#2b88b1" stroke-width="1">
        <rect width="6" height="6" rx="1" stroke="none"/>
        <rect x="0.5" y="0.5" width="5" height="5" rx="0.5" fill="none"/>
      </g>
      <g id="Rectangle_767" data-name="Rectangle 767" transform="translate(10683 595)" fill="rgba(43,136,177,0.35)" stroke="#2b88b1" stroke-width="1">
        <rect width="6" height="6" rx="1" stroke="none"/>
        <rect x="0.5" y="0.5" width="5" height="5" rx="0.5" fill="none"/>
      </g>
    </g>
    <g id="Group" transform="translate(10479.672 610.527) rotate(22)">
      <path id="Path-2" data-name="Path" d="M58.732,48.968A10.9,10.9,0,0,0,55,50.847l1.65,2.976Z" transform="translate(-0.042 -0.018)" fill="#d6d6d6"/>
      <path id="Path-3" data-name="Path" d="M30.239,66.081a17.4,17.4,0,0,1,2.65-2.819l1.948,2.8Z" transform="translate(-0.042 -0.018)" fill="#d6d6d6"/>
      <path id="Path-4" data-name="Path" d="M11.882,31.118a5.778,5.778,0,0,0-3.466.378.878.878,0,0,0-.351,1.537,40.4,40.4,0,0,1,.474,5.532c-.167,1.062-1.272,3.091-.325,6.822.807,3.2,12.891,13.469,20.393,15.5Z" transform="translate(-0.042 -0.018)" fill="#efad97"/>
      <path id="Path-5" data-name="Path" d="M9.161,37.966c.518-1.642.605-4.127-1.158-5a.928.928,0,0,0,.061.07,40.4,40.4,0,0,1,.474,5.532c-.009.07-.026.14-.044.219A1.225,1.225,0,0,0,9.161,37.966Z" transform="translate(-0.042 -0.018)" fill="#ffedd9"/>
      <path id="Path-6" data-name="Path" d="M28.607,60.892,11.89,31.126a3.274,3.274,0,0,0-1.316-.114c.957,3.416,5.2,18.044,9.635,25.709A31.536,31.536,0,0,0,28.607,60.892Z" transform="translate(-0.042 -0.018)" fill="#e29f8d"/>
      <path id="Path-7" data-name="Path" d="M22.473,57.1c5.52,4.75,8.424,4.82,9.565,5.909,1.29,1.238,3.843,6.375,5.757,10.835l13.8-.86,9.572-2.4A38.909,38.909,0,0,0,55.994,50.3s-1.343-15.6-9.749-24.444c-1.632-1.712-3.589-2.985-5.572-2.871s-3.887,1.133-4.256.9c-1.781-1.089-5.836-.571-8.863.843,0,0-3.87-1.449-8.644,1.4-.123.079-8.916-20.467-10.592-23.654C7.1.176,5.151-.43,3.291.325c-1.746.7-2.369,2.959-1.755,4.935s8.547,22.162,10.083,25.779C11.627,31.056,17.814,53.077,22.473,57.1Z" transform="translate(-0.042 -0.018)" fill="#fcbaa0"/>
      <path id="Path-8" data-name="Path" d="M58.741,55.184C57.819,53.56,56.9,51.918,56,50.3c0,0-.132-1.563-.588-3.978,0,.009-.009.009-.009.018C52.712,54.183,44.867,60,35.776,64.474c.369.773.088,5.268.474,6.111,2.29-1.326,4.589-2.669,6.9-4.285A181.423,181.423,0,0,0,58.741,55.184Z" transform="translate(-0.042 -0.018)" fill="#e5a493"/>
      <path id="Path-9" data-name="Path" d="M29.344,70.366a23.877,23.877,0,0,1,4.344-3.117l.781,3.951Z" transform="translate(-0.042 -0.018)" fill="#111"/>
      <path id="Path-10" data-name="Path" d="M62.839,51.813,64.1,55.07l-3.589,2.792-2.29-3.907A40.12,40.12,0,0,1,62.839,51.813Z" transform="translate(-0.042 -0.018)" fill="#111"/>
      <path id="Path-11" data-name="Path" d="M62.619,57.116l-3.887-8.157s-7.661,12.02-28.493,17.113l1.939,5.391C32.179,71.472,47.851,74.141,62.619,57.116Z" transform="translate(-0.042 -0.018)" fill="#fff"/>
      <path id="Path-12" data-name="Path" d="M60.443,52.568l2.168,4.557c-7.187,8.28-19.534,10.01-25.237,11.546C47.438,64.228,52.554,62.191,60.443,52.568Z" transform="translate(-0.042 -0.018)" fill="#333" opacity="0.15"/>
      <path id="Path-13" data-name="Path" d="M35.776,64.474l2.633,6.884a22.457,22.457,0,0,1-6.23.114l-1.939-5.391Q33.175,65.356,35.776,64.474Z" transform="translate(-0.042 -0.018)" fill="#333" opacity="0.1"/>
      <path id="Path-14" data-name="Path" d="M68.595,66.132,62.839,51.813S52.16,67.249,29.353,70.366l1.483,3.477Q34.444,85.672,36.8,87.269c1.549,1.05,4.315-1.239,6.319-1.906q7.785-2.59,23.229-16.692Z" transform="translate(-0.042 -0.018)" fill="#f9f9f9"/>
      <path id="Path-15" data-name="Path" d="M35.969,73.843,34,69.531q-2.238.5-4.651.834l1.483,3.477Z" transform="translate(-0.042 -0.018)" fill="#d4d4d4" opacity="0.5"/>
      <path id="Path-16" data-name="Path" d="M2.887,5.426c-.369-1.2-.632-3.31,1.027-4,1.9-.808,3.44,1.44,3.694,1.835A6.607,6.607,0,0,0,2.887,5.426Z" transform="translate(-0.042 -0.018)" fill="#ffedd9"/>
      <g id="Path-17" data-name="Path" transform="translate(6.882 13.57)" opacity="0.6">
        <path id="Path_2087" data-name="Path 2087" d="M.079,1.967S2.1-.29,4.6.114A10.5,10.5,0,0,0,.079,1.967Z" transform="translate(-0.079 -0.066)" fill="#db9d7b"/>
        <path id="Path_2088" data-name="Path 2088" d="M1.211,2.573A4.566,4.566,0,0,1,4.563,1.124,8.5,8.5,0,0,0,1.211,2.573Z" transform="translate(-0.079 -0.066)" fill="#db9d7b"/>
      </g>
    </g>
  </g>
</svg>
