<svg width="78" height="90" viewBox="0 0 78 90" fill="none" xmlns="http://www.w3.org/2000/svg">
<path d="M24.417 70.0001C31.9712 61.8584 45.9462 61.4751 53.5837 70.0001M47.0837 45.0001C47.0837 49.6042 43.4545 53.3334 38.9712 53.3334C34.492 53.3334 30.8587 49.6042 30.8587 45.0001C30.8587 40.3959 34.492 36.6667 38.9712 36.6667C43.4503 36.6667 47.0878 40.3959 47.0878 45.0001" stroke="#1E5189" stroke-width="6.25" stroke-linecap="round" stroke-linejoin="round"/>
<path d="M28.584 11.6749C17.5673 11.7165 11.6715 12.0999 7.85482 15.7165C3.58398 19.7624 3.58398 26.2749 3.58398 39.2999V59.0374C3.58398 72.0624 3.58398 78.579 7.85482 82.6207C12.1257 86.6707 19.0007 86.6707 32.7507 86.6707H45.2507C59.0007 86.6707 65.8757 86.6707 70.1465 82.6249C74.4173 78.5749 74.4173 72.0624 74.4173 59.0415V39.2999C74.4173 26.2749 74.4173 19.7624 70.1465 15.7165C66.3298 12.0999 60.4382 11.7165 49.4173 11.6749" stroke="#1E5189" stroke-width="6.25" stroke-linecap="round" stroke-linejoin="round"/>
<path d="M29.7162 10.1334C30.1162 8.40424 30.3162 7.53757 30.6996 6.8334C31.1761 5.99554 31.8246 5.26798 32.6023 4.69851C33.38 4.12905 34.2694 3.73057 35.2121 3.52924C36.0579 3.3334 37.0412 3.3334 38.9996 3.3334C40.9579 3.3334 41.9412 3.3334 42.7871 3.52924C43.7297 3.73057 44.6191 4.12905 45.3968 4.69851C46.1746 5.26798 46.823 5.99554 47.2996 6.8334C47.6829 7.54174 47.8829 8.40424 48.2829 10.1334L48.6287 11.6334C49.3371 14.6959 49.6912 16.2292 49.1579 17.4084C48.7944 18.191 48.2034 18.8459 47.4621 19.2876C46.2912 20.0001 44.5496 20.0001 41.0746 20.0001H36.9246C33.4496 20.0001 31.7079 20.0001 30.5371 19.2917C29.7951 18.849 29.204 18.1926 28.8412 17.4084C28.3079 16.2292 28.6621 14.7001 29.3704 11.6334L29.7162 10.1334Z" stroke="#1E5189" stroke-width="6.25" stroke-linecap="round" stroke-linejoin="round"/>
</svg>
