<?xml version="1.0" encoding="UTF-8"?>
<svg width="753px" height="125px" viewBox="0 0 753 125" version="1.1" xmlns="http://www.w3.org/2000/svg" xmlns:xlink="http://www.w3.org/1999/xlink">
    <title>moa full</title>
    <defs>
        <linearGradient x1="67.8451192%" y1="102.575847%" x2="32.005682%" y2="-2.31748074%" id="linearGradient-1">
            <stop stop-color="#FFFFFF" offset="10.44%"></stop>
            <stop stop-color="#FBFBFB" offset="20.6%"></stop>
            <stop stop-color="#F1F1F1" offset="29.67%"></stop>
            <stop stop-color="#DEDEDE" offset="38.32%"></stop>
            <stop stop-color="#C5C5C5" offset="46.73%"></stop>
            <stop stop-color="#A4A4A4" offset="54.94%"></stop>
            <stop stop-color="#7B7B7B" offset="63.02%"></stop>
            <stop stop-color="#4B4B4B" offset="71%"></stop>
            <stop stop-color="#141414" offset="78.69%"></stop>
            <stop stop-color="#000000" offset="81.32%"></stop>
        </linearGradient>
        <linearGradient x1="73.7767669%" y1="105.645908%" x2="26.2146355%" y2="-5.90592769%" id="linearGradient-2">
            <stop stop-color="#FFFFFF" offset="10.44%"></stop>
            <stop stop-color="#FBFBFB" offset="20.6%"></stop>
            <stop stop-color="#F1F1F1" offset="29.67%"></stop>
            <stop stop-color="#DEDEDE" offset="38.32%"></stop>
            <stop stop-color="#C5C5C5" offset="46.73%"></stop>
            <stop stop-color="#A4A4A4" offset="54.94%"></stop>
            <stop stop-color="#7B7B7B" offset="63.02%"></stop>
            <stop stop-color="#4B4B4B" offset="71%"></stop>
            <stop stop-color="#141414" offset="78.69%"></stop>
            <stop stop-color="#000000" offset="81.32%"></stop>
        </linearGradient>
    </defs>
    <g id="Page-2" stroke="none" stroke-width="1" fill="none" fill-rule="evenodd">
        <g id="Collection-Notice" transform="translate(-455.000000, -819.000000)">
            <g id="MOA.3" transform="translate(455.000000, 819.000000)">
                <rect id="Rectangle.1" fill="#D0E3EB" x="157" y="14" width="596" height="14"></rect>
                <rect id="Rectangle" fill="#D0E3EB" transform="translate(134.500000, 30.000000) rotate(160.000000) translate(-134.500000, -30.000000) " x="108" y="23" width="53" height="14"></rect>
                <circle id="Oval" fill="#D0E3EB" fill-rule="nonzero" cx="62.5" cy="62.5" r="62.5"></circle>
                <path d="M86.238095,62.5 L58.860658,66.2577037 L54.6445427,62.0077608 L40.0390625,88.0276193 L75.7251191,124 C99.3516955,118.688882 117.797471,100.079805 123.046875,76.2593015 L86.238095,62.5 Z" id="Path" fill="#AFCEDF" fill-rule="nonzero"></path>
                <polygon id="Path" fill="#205F89" fill-rule="nonzero" points="40.6395722 31.7774486 47.484492 61.2374695 33.657754 58.5464099 33.5208556 43.53313"></polygon>
                <polygon id="Path" fill="#0A3960" fill-rule="nonzero" points="19.7497326 36 14 62.910596 27.826738 71.5503137 27.0053476 39.5408679"></polygon>
                <path d="M51.0438503,64.7783374 L51.0438503,64.495068 C50.0855615,57.5549669 45.8417112,58.4047752 35.7112299,53.4475601 L26.402139,53.5891948 C17.0930481,57.8382363 11.3433155,59.3962182 11.2064171,65.6281457 L10.1112299,76.1091147 L52.002139,76.1091147 L51.0438503,64.7783374 Z" id="Path" fill="#FFFFFF" fill-rule="nonzero"></path>
                <g id="Group" transform="translate(22.748663, 48.773614)" fill-rule="nonzero">
                    <path d="M3.37967914,0.566538864 C3.24278075,2.40779017 2.14759358,6.2319275 0.504812834,7.50663994 C2.28449198,10.7642384 6.39144385,14.3051063 8.17112299,14.446741 C8.0342246,7.36500523 8.17112299,0.424904148 8.17112299,0.424904148 L3.37967914,0.424904148 L3.37967914,0.566538864 Z" id="Path" fill="#CDE3E8"></path>
                    <path d="M12.6887701,0.566538864 C12.8256684,2.40779017 13.9208556,6.2319275 15.5636364,7.50663994 C13.7839572,10.7642384 9.67700535,14.3051063 7.8973262,14.446741 C8.0342246,7.36500523 7.8973262,0.424904148 7.8973262,0.424904148 L12.6887701,0.424904148 L12.6887701,0.566538864 Z" id="Path" fill="#FFFFFF"></path>
                </g>
                <polygon id="Path" fill="url(#linearGradient-1)" fill-rule="nonzero" opacity="0.4" points="35.9850267 50.0483269 22.9796791 67.0444929 15.5871658 61.0958348 28.455615 43.9580342"></polygon>
                <g id="Group" transform="translate(20.652406, 25.446706)" fill-rule="nonzero">
                    <path d="M1.91657754,5.62256884 C0.95828877,7.60545486 1.36898396,10.1548797 1.50588235,12.7043046 C0.821390374,12.8459394 0.547593583,13.2708435 0.547593583,14.5455559 C0.547593583,16.3868072 1.36898396,19.3611363 2.60106952,19.7860404 C2.73796791,20.2109446 2.87486631,20.6358487 3.1486631,21.0607529 C3.1486631,21.0607529 3.1486631,21.0607529 3.1486631,21.0607529 C3.55935829,21.9105612 4.10695187,22.7603695 4.65454545,23.468543 C4.92834225,23.7518125 5.20213904,24.1767166 5.47593583,24.4599861 C6.84491979,26.0179679 8.48770053,27.0094109 10.2673797,27.1510457 L10.2673797,0.523719066 C7.25561497,0.806988498 3.55935829,2.50660509 1.91657754,5.62256884 Z" id="Path" fill="#CDE3E8"></path>
                    <path d="M10.1304813,0.806988498 L10.1304813,27.4343151 C11.9101604,27.2926804 13.5529412,26.3012374 14.9219251,24.7432555 C15.1957219,24.4599861 15.4695187,24.1767166 15.7433155,23.7518125 C16.2909091,23.0436389 16.7016043,22.1938306 17.2491979,21.3440223 C17.2491979,21.3440223 17.2491979,21.3440223 17.2491979,21.3440223 C17.3860963,20.9191182 17.659893,20.494214 17.7967914,20.0693099 C19.028877,19.6444057 19.8502674,16.6700767 19.8502674,14.8288254 C19.8502674,13.5541129 19.4395722,13.1292088 18.8919786,12.9875741 C19.028877,10.4381492 19.5764706,7.88872429 18.4812834,5.90583827 C16.8385027,2.50660509 13.142246,0.806988498 10.1304813,0.806988498 Z" id="Path" fill="#FFFFFF"></path>
                </g>
                <path d="M30.7828877,25.6871558 C28.7294118,24.9789822 24.2117647,25.8287905 22.2951872,28.3782154 C19.4203209,32.2023527 19.4203209,39.567358 19.4203209,39.567358 L23.1165775,39.0008191 C23.1165775,39.0008191 24.2117647,34.3268735 28.1818182,32.6272569 C31.3304813,31.3525444 30.7828877,25.6871558 30.7828877,25.6871558 Z" id="Path" fill="#0A3960" fill-rule="nonzero"></path>
                <path d="M26.6759358,29.2280237 C27.3604278,32.7688916 34.0684492,33.1937957 36.2588235,34.3268735 C38.4491979,35.4599512 38.4491979,38.8591844 38.4491979,38.8591844 L40.3657754,38.2926455 C40.3657754,38.2926455 42.5561497,31.4941792 38.4491979,27.6700418 C34.342246,23.9875392 29.9614973,25.4038864 28.1818182,25.9704252 C26.402139,26.3953294 26.6759358,29.2280237 26.6759358,29.2280237 Z" id="Path" fill="#205F89" fill-rule="nonzero"></path>
                <g id="Group" transform="translate(22.748663, 21.863018)" fill-rule="nonzero">
                    <path d="M15.8374332,3.25759847 C13.0994652,1.41634716 10.4983957,0.70817358 8.17112299,0.566538864 L7.8973262,0.566538864 C5.57005348,0.70817358 2.96898396,1.41634716 0.231016043,3.25759847 C1.4631016,6.79846636 2.42139037,8.9229871 2.42139037,8.9229871 C4.33796791,8.21481352 6.11764706,7.93154409 8.0342246,7.93154409 C9.95080214,7.93154409 11.7304813,8.21481352 13.6470588,8.9229871 C13.6470588,9.06462182 14.4684492,6.79846636 15.8374332,3.25759847 Z" id="Path" fill="#FFFFFF"></path>
                    <path d="M10.0877005,3.39923318 L8.99251337,3.39923318 C8.99251337,3.39923318 8.99251337,3.39923318 8.99251337,3.39923318 L8.99251337,2.26615545 C8.99251337,2.26615545 8.99251337,2.12452074 8.85561497,2.12452074 L7.34973262,2.12452074 C7.34973262,2.12452074 7.21283422,2.12452074 7.21283422,2.26615545 L7.21283422,3.39923318 C7.21283422,3.39923318 7.21283422,3.39923318 7.21283422,3.39923318 L6.11764706,3.39923318 C6.11764706,3.39923318 5.98074866,3.39923318 5.98074866,3.5408679 L5.98074866,5.09884977 C5.98074866,5.09884977 5.98074866,5.24048449 6.11764706,5.24048449 L7.21283422,5.24048449 C7.21283422,5.24048449 7.21283422,5.24048449 7.21283422,5.24048449 L7.21283422,6.37356222 C7.21283422,6.37356222 7.21283422,6.51519693 7.34973262,6.51519693 L8.85561497,6.51519693 C8.85561497,6.51519693 8.99251337,6.51519693 8.99251337,6.37356222 L8.99251337,5.24048449 C8.99251337,5.24048449 8.99251337,5.24048449 8.99251337,5.24048449 L10.0877005,5.24048449 C10.0877005,5.24048449 10.2245989,5.24048449 10.2245989,5.09884977 L10.0877005,3.39923318 C10.2245989,3.5408679 10.2245989,3.39923318 10.0877005,3.39923318 Z" id="Path" fill="#0A3960"></path>
                </g>
                <path d="M120.314439,71.0102649 L120.314439,70.7269955 C119.219251,63.6452597 117.576471,62.5121819 107.172193,57.5549669 L93.6192513,57.8382363 C83.2149733,61.5207389 80.6139037,63.9285291 79.655615,72.0017079 L78.5604278,82.6243116 L121.272727,82.6243116 L120.314439,71.0102649 Z" id="Path" fill="#FFFFFF" fill-rule="nonzero"></path>
                <g id="Group" transform="translate(93.208556, 53.773649)" fill-rule="nonzero">
                    <polygon id="Path" fill="#CDE3E8" points="1.23208556 0.38208435 0.273796791 3.92295225 6.70802139 9.30507145 6.4342246 0.948623214"></polygon>
                    <polygon id="Path" fill="#FFFFFF" points="11.773262 0.523719066 12.7315508 4.06458696 6.2973262 9.44670617 6.57112299 1.09025793"></polygon>
                </g>
                <path d="M93.7561497,56.5635239 C94.4406417,57.4133322 98,60.1043918 99.9165775,59.8211223 C101.833155,59.6794876 104.981818,57.8382363 105.66631,56.4218892 C106.213904,56.988428 107.993583,57.979871 107.993583,57.979871 L99.5058824,66.7612234 L91.5657754,58.6880446 L93.7561497,56.5635239 Z" id="Path" fill="#CDE3E8" fill-rule="nonzero"></path>
                <polygon id="Path" fill="url(#linearGradient-2)" fill-rule="nonzero" opacity="0.4" points="105.118717 55.1471767 95.2620321 68.1775706 88.5540107 62.6538167 98.4106952 49.7650575"></polygon>
                <g id="Group" transform="translate(89.101604, 30.311642)" fill-rule="nonzero">
                    <g transform="translate(0.000000, 0.049460)" fill="#FFFFFF" id="Path">
                        <path d="M4.65454545,23.936267 C4.92834225,24.3611711 5.20213904,24.6444406 5.47593583,24.92771 C5.47593583,24.92771 5.47593583,24.92771 5.47593583,24.92771 C5.20213904,24.5028059 4.92834225,24.2195364 4.65454545,23.936267 Z"></path>
                        <path d="M20.9454545,14.7300105 C20.9454545,13.5969327 20.6716578,13.0303939 19.9871658,12.8887591 C20.1240642,10.480969 20.5347594,7.78990938 19.5764706,6.09029278 C17.9336898,2.6910596 13.2791444,0.566538864 10.2673797,0.566538864 C7.25561497,0.566538864 3.42245989,2.40779017 1.77967914,5.52375392 C0.684491979,7.50663994 1.23208556,10.0560648 1.36898396,12.7471244 C0.684491979,12.8887591 0.410695187,13.455298 0.410695187,14.7300105 C0.410695187,16.5712618 1.23208556,19.5455908 2.46417112,19.9704949 C2.60106952,20.3953991 2.87486631,20.8203032 3.01176471,21.2452074 C3.01176471,21.2452074 3.01176471,21.2452074 3.01176471,21.2452074 C3.42245989,22.2366504 3.97005348,22.944824 4.51764706,23.7946323 C4.79144385,24.0779017 5.06524064,24.5028059 5.33903743,24.7860753 C5.33903743,24.7860753 5.33903743,24.7860753 5.33903743,24.7860753 C6.84491979,26.4856919 8.76149733,27.6187696 10.6780749,27.6187696 C13.6898396,27.6187696 16.4278075,25.2109794 18.2074866,21.5284768 C18.344385,21.2452074 18.4812834,20.961938 18.6181818,20.8203032 C18.7550802,20.5370338 18.8919786,20.2537644 18.8919786,19.9704949 C20.2609626,19.2623214 20.9454545,16.5712618 20.9454545,14.7300105 Z"></path>
                    </g>
                    <path d="M18.344385,21.5779366 C18.4812834,21.2946671 18.6181818,21.0113977 18.7550802,20.869763 C18.8919786,20.5864936 19.028877,20.3032241 19.028877,20.0199547 C20.1240642,19.3117811 20.8085561,16.6207215 20.8085561,14.7794702 C20.8085561,13.6463925 20.5347594,13.0798536 19.8502674,12.9382189 C19.9871658,10.5304287 20.397861,7.83936912 19.4395722,6.13975253 C17.7967914,2.74051934 13.2791444,0.615998606 10.1304813,0.615998606 L10.1304813,27.8098641 C10.2673797,27.8098641 10.4042781,27.8098641 10.5411765,27.8098641 C13.826738,27.6682293 16.5647059,25.4020739 18.344385,21.5779366 Z" id="Path" fill="#FFFFFF"></path>
                    <g transform="translate(0.727273, 0.000000)" id="Path">
                        <path d="M15.5636364,5.0066748 C15.7005348,6.56465667 12.8256684,6.56465667 10.9090909,6.13975253 C8.99251337,5.8564831 7.8973262,6.13975253 6.11764706,6.70629139 C4.33796791,7.27283025 2.55828877,9.11408156 2.28449198,10.1055246 C2.14759358,10.6720634 2.28449198,13.5047578 2.28449198,13.5047578 L0.64171123,12.7965842 C0.64171123,12.7965842 0.0941176471,8.97244685 0.64171123,6.28138724 C1.18930481,3.73196236 2.42139037,1.60744162 6.93903743,0.47436389 C11.0459893,-0.375444406 13.9208556,0.0494597421 14.057754,1.18253747 C14.3315508,1.18253747 14.6053476,1.04090275 15.0160428,1.04090275 C15.9743316,1.04090275 17.4802139,2.3156152 18.3016043,3.59032764 C19.1229947,5.0066748 20.3550802,7.41446497 19.6705882,11.8051412 C19.5336898,12.9382189 19.259893,13.2214883 19.259893,13.2214883 L17.8909091,14.0712966 C17.8909091,14.0712966 18.4385027,8.68917741 16.3850267,7.13119554 C15.8374332,6.56465667 15.5636364,5.0066748 15.5636364,5.0066748 Z" fill="#0A3960"></path>
                        <g transform="translate(14.331551, 0.800453)" fill="#205F89">
                            <path d="M2.19037433,6.1891077 C4.38074866,7.74708958 3.83315508,13.1292088 3.83315508,13.1292088 L5.20213904,12.2794005 C5.20213904,12.2794005 5.47593583,11.9961311 5.61283422,10.8630533 C6.16042781,6.61401185 5.33903743,4.06458696 4.51764706,2.6482398 C3.69625668,1.23189265 1.91657754,0.0988149181 0.95828877,0.0988149181 C0.821390374,0.0988149181 0.273796791,0.240449634 0.136898396,0.240449634 C0.547593583,1.65679679 1.50588235,3.63968282 1.50588235,3.92295225 C1.23208556,4.06458696 1.50588235,5.62256884 2.19037433,6.1891077 Z"></path>
                            <path d="M1.23208556,4.06458696 C1.23208556,4.20622168 1.23208556,4.3478564 1.23208556,4.48949111 C1.23208556,4.3478564 1.23208556,4.20622168 1.23208556,4.06458696 Z"></path>
                        </g>
                    </g>
                </g>
                <g id="Group" transform="translate(90.470588, 20.446671)" fill-rule="nonzero">
                    <g fill="#FFFFFF" id="Path">
                        <path d="M19.028877,1.69961659 C19.028877,0.991443012 14.7850267,0.283269432 9.5828877,0.283269432 C4.38074866,0.283269432 0,1.13307773 0,1.69961659 L0,1.69961659 L0,16.5712618 C0,16.5712618 0.136898396,16.5712618 0.136898396,16.5712618 C0.136898396,16.0047229 4.38074866,15.2965493 9.5828877,15.2965493 C14.2374332,15.2965493 18.2074866,15.8630882 18.8919786,16.429627 L18.8919786,1.69961659 L19.028877,1.69961659 Z"></path>
                        <path d="M0,1.69961659 L0,16.5712618 C0,16.5712618 0.136898396,16.5712618 0.136898396,16.5712618 C0.136898396,16.0047229 4.38074866,15.2965493 9.5828877,15.2965493 C9.5828877,15.2965493 9.5828877,15.2965493 9.7197861,15.2965493 L9.7197861,0.141634716 C9.7197861,0.141634716 9.5828877,0.141634716 9.5828877,0.141634716 C4.38074866,0.283269432 0,0.991443012 0,1.69961659 Z"></path>
                    </g>
                    <path d="M12.7315508,6.65683165 L10.9518717,6.65683165 C10.9518717,6.65683165 10.8149733,6.65683165 10.8149733,6.65683165 L10.8149733,4.81558034 C10.8149733,4.67394563 10.8149733,4.67394563 10.6780749,4.67394563 L8.35080214,4.67394563 C8.35080214,4.67394563 8.21390374,4.67394563 8.21390374,4.81558034 L8.21390374,6.65683165 C8.21390374,6.65683165 8.21390374,6.65683165 8.21390374,6.65683165 L6.4342246,6.65683165 C6.2973262,6.65683165 6.2973262,6.65683165 6.2973262,6.79846636 L6.2973262,9.20625654 C6.2973262,9.34789125 6.2973262,9.34789125 6.4342246,9.34789125 L8.21390374,9.34789125 C8.21390374,9.34789125 8.21390374,9.34789125 8.21390374,9.34789125 L8.21390374,11.1891426 C8.21390374,11.3307773 8.21390374,11.3307773 8.35080214,11.3307773 L10.6780749,11.3307773 C10.8149733,11.3307773 10.8149733,11.3307773 10.8149733,11.1891426 L10.8149733,9.34789125 C10.8149733,9.34789125 10.8149733,9.34789125 10.9518717,9.34789125 L12.7315508,9.34789125 C12.8684492,9.34789125 12.8684492,9.34789125 12.8684492,9.20625654 L12.7315508,6.65683165 C12.8684492,6.79846636 12.8684492,6.65683165 12.7315508,6.65683165 Z" id="Path" fill="#0A3960"></path>
                </g>
                <path d="M94.0673797,77.327832 L94.0673797,76.9029278 C92.5614973,66.1386894 89.9604278,64.5807076 74.3540107,57.0740676 L53.9561497,57.4989718 C38.3497326,63.0227257 34.3796791,66.5635936 33.0106952,78.7441792 L31.231016,94.7489021 L95.4363636,94.7489021 L94.0673797,77.327832 Z" id="Path" fill="#D1D1D1" fill-rule="nonzero"></path>
                <g id="Group" transform="translate(53.545455, 52.024573)" fill-rule="nonzero">
                    <polygon id="Path" fill="#CDE3E8" points="1.64278075 0.0922795399 0.273796791 5.33276403 9.85668449 13.4059428 9.5828877 0.942087835"></polygon>
                    <polygon id="Path" fill="#FFFFFF" points="17.659893 0.233914256 19.028877 5.61603346 9.30909091 13.5475776 9.7197861 1.08372255"></polygon>
                </g>
                <path d="M54.3668449,54.5246427 C55.3251337,55.7993552 60.3903743,59.7651272 63.2652406,59.4818578 C66.140107,59.1985884 70.9315508,56.5075288 71.8898396,54.383008 C72.7112299,55.2328163 75.7229947,57.6406065 75.7229947,57.6406065 L62.9914439,88.3753398 L51.0812834,58.7736842 L54.3668449,54.5246427 Z" id="Path" fill="#0A3960" fill-rule="nonzero"></path>
                <g id="Group" transform="translate(47.299465, 18.802370)" fill-rule="nonzero">
                    <g transform="translate(0.000000, 0.750993)" fill="#FFFFFF" id="Path">
                        <path d="M6.66524064,35.3658592 C7.07593583,35.932398 7.48663102,36.3573022 7.8973262,36.9238411 C7.8973262,36.9238411 7.8973262,36.9238411 7.8973262,36.9238411 C7.48663102,36.4989369 7.07593583,35.932398 6.66524064,35.3658592 Z"></path>
                        <path d="M31.3069519,21.7689265 C31.3069519,19.9276751 30.7593583,19.2195016 29.9379679,18.9362321 C30.2117647,15.2537295 30.6224599,11.2879575 29.3903743,8.59689787 C26.9262032,3.35641338 20.0812834,0.240449634 15.2898396,0.240449634 C10.7721925,0.240449634 5.02245989,2.93150924 2.55828877,7.74708958 C1.05240642,10.7214186 1.7368984,14.6871907 2.01069519,18.6529627 C1.05240642,18.9362321 0.504812834,19.6444057 0.504812834,21.485657 C0.504812834,24.3183513 1.7368984,28.8506623 3.65347594,29.4172011 C3.92727273,30.1253747 4.20106952,30.8335483 4.47486631,31.4000871 C4.47486631,31.4000871 4.47486631,31.5417219 4.47486631,31.5417219 C5.15935829,32.958069 5.84385027,34.2327815 6.66524064,35.3658592 C7.07593583,35.932398 7.48663102,36.3573022 7.8973262,36.7822063 C10.2245989,39.4732659 12.9625668,40.8896131 15.9743316,40.8896131 C20.4919786,40.8896131 24.5989305,37.3487452 27.3368984,31.6833566 C27.6106952,31.2584524 27.7475936,30.8335483 28.0213904,30.5502788 C28.1582888,30.1253747 28.2951872,29.7004705 28.4320856,29.2755664 C30.2117647,28.4257581 31.3069519,24.4599861 31.3069519,21.7689265 Z"></path>
                    </g>
                    <path d="M27.3368984,32.7176194 C27.6106952,32.2927152 27.7475936,31.8678111 28.0213904,31.5845417 C28.1582888,31.1596375 28.2951872,30.7347334 28.4320856,30.3098292 C30.0748663,29.1767515 31.1700535,25.2109794 31.1700535,22.5199198 C31.1700535,20.6786685 30.6224599,19.9704949 29.8010695,19.6872255 C30.0748663,16.0047229 30.4855615,12.0389509 29.2534759,9.34789125 C26.7893048,4.24904148 20.0812834,1.13307773 15.2898396,0.991443012 L15.2898396,41.7822412 C15.426738,41.7822412 15.7005348,41.7822412 15.8374332,41.7822412 C20.4919786,41.7822412 24.5989305,38.2413733 27.3368984,32.7176194 Z" id="Path" fill="#FFFFFF"></path>
                    <g transform="translate(1.237456, 0.000000)" id="Path">
                        <path d="M22.9507794,7.64827466 C23.2245762,10.0560648 18.9807259,9.91443012 16.1058596,9.48952597 C13.2309933,9.06462182 11.5882125,9.63116068 8.85024462,10.3393343 C6.11227671,11.1891426 3.51120719,14.0218369 3.100512,15.438184 C2.82671521,16.2879923 3.100512,20.5370338 3.100512,20.5370338 L0.636340881,19.4039561 C0.636340881,19.4039561 -0.458846285,13.3136633 0.362544089,9.34789125 C1.18393446,5.52375392 3.2374104,2.54942489 10.0823302,0.991443012 C16.242758,-0.424904148 20.6235067,0.424904148 20.7604051,1.98288602 C21.1711002,2.12452074 21.5817954,1.69961659 22.129389,1.69961659 C23.498373,1.69961659 26.2363409,3.39923318 27.6053248,5.52375392 C28.8374104,7.64827466 30.069496,11.472412 29.2481056,17.8459742 C29.1112072,19.5455908 28.700512,19.9704949 28.700512,19.9704949 L26.7839345,21.2452074 C26.7839345,21.2452074 27.7422232,13.1720286 24.4566617,10.7642384 C23.3614746,10.0560648 22.9507794,7.64827466 22.9507794,7.64827466 Z" fill="#0A3960"></path>
                        <g transform="translate(20.666287, 1.416347)" fill="#205F89">
                            <path d="M3.65347594,9.20625654 C6.93903743,11.6140467 5.98074866,19.6872255 5.98074866,19.6872255 L8.0342246,18.5541478 C8.0342246,18.5541478 8.30802139,18.1292436 8.58181818,16.429627 C9.40320856,10.0560648 8.30802139,6.2319275 6.93903743,4.10740676 C5.70695187,1.98288602 2.96898396,0.283269432 1.4631016,0.283269432 C1.18930481,0.283269432 0.367914439,0.424904148 0.231016043,0.566538864 C0.778609626,2.6910596 2.28449198,5.66538864 2.28449198,6.2319275 C2.28449198,6.2319275 2.69518717,8.49808296 3.65347594,9.20625654 Z"></path>
                            <path d="M2.28449198,6.2319275 C2.28449198,6.37356222 2.28449198,6.51519693 2.28449198,6.79846636 C2.28449198,6.51519693 2.28449198,6.37356222 2.28449198,6.2319275 Z"></path>
                        </g>
                    </g>
                </g>
                <g id="Group" transform="translate(57.010695, 61.939003)" fill-rule="nonzero">
                    <g id="Path">
                        <polygon fill="#34B4B7" points="8.0342246 5.75766818 5.84385027 5.75766818 5.84385027 0.0922795399 10.0877005 0.0922795399 10.0877005 2.50006971"></polygon>
                        <polygon fill="#34B4B7" points="8.30802139 4.90785988 12.0042781 41.0247124 6.11764706 45.6986581 5.98074866 45.5570234 5.70695187 4.90785988"></polygon>
                        <polygon fill="#006E99" points="4.20106952 5.75766818 5.98074866 5.75766818 5.98074866 0.0922795399 1.7368984 0.0922795399 1.7368984 2.50006971"></polygon>
                        <polygon fill="#006E99" points="3.92727273 4.90785988 0.231016043 41.0247124 6.11764706 45.6986581 5.98074866 4.90785988"></polygon>
                    </g>
                    <polygon id="Path" fill="#006E99" points="8.30802139 5.75766818 3.92727273 5.75766818 3.92727273 5.33276403 8.30802139 5.33276403"></polygon>
                </g>
            </g>
        </g>
    </g>
</svg>
