<svg width="100" height="100" viewBox="0 0 100 100" fill="none" xmlns="http://www.w3.org/2000/svg">
<path d="M45.8337 8.33334C32.0837 8.33334 25.2087 8.33334 20.9295 12.6042C16.6503 16.875 16.667 23.75 16.667 37.5V62.5C16.667 76.25 16.667 83.125 20.9378 87.3959C25.2087 91.6667 32.0837 91.6667 45.8337 91.6667C59.5837 91.6667 66.4587 91.6667 70.7295 87.3959C75.0003 83.125 75.0003 76.25 75.0003 62.5V58.3333M41.667 79.1667H50.0003" stroke="#1E5189" stroke-width="6" stroke-linecap="round" stroke-linejoin="round"/>
<path d="M61.4583 20.6622C61.4583 20.4122 61.4916 18.9705 61.4958 17.1622C61.4999 15.5038 61.3541 13.9122 62.1458 12.4538C65.1041 6.56216 73.6041 7.16216 75.7041 13.1622C76.0708 14.1497 76.0916 15.7122 76.0791 17.1622C76.0666 19.008 76.1041 20.6622 76.1041 20.6622M61.8208 22.4163C57.3208 22.4163 55.0708 25.6663 54.5708 27.6663C54.0708 29.6663 54.0708 36.9163 54.3708 39.9163C55.3708 43.6663 57.8708 45.2163 60.3208 45.7163C62.5708 45.9163 72.0708 45.8413 74.8208 45.8413C78.8208 45.9163 81.8208 44.4163 83.0708 39.9163C83.3208 38.4163 83.5707 30.1663 82.9457 27.6663C81.6166 23.6663 78.3208 22.4163 75.8208 22.4163H61.8208Z" stroke="#1E5189" stroke-width="6" stroke-linecap="round" stroke-linejoin="round"/>
</svg>
