<?xml version="1.0" encoding="utf-8"?>
<!-- Generator: Adobe Illustrator 28.0.0, SVG Export Plug-In . SVG Version: 6.00 Build 0)  -->
<svg version="1.1" id="notification" xmlns="http://www.w3.org/2000/svg" xmlns:xlink="http://www.w3.org/1999/xlink" x="0px"
	 y="0px" viewBox="0 0 168 168.3" style="enable-background:new 0 0 168 168.3;" xml:space="preserve">
<style type="text/css">
	.st0{display:none;fill:#D0E3EB;}
	.st1{display:none;fill:#AFCEDF;}
	.st2{fill:#FFCD04;}
	.st3{fill:#FCD004;}
	.st4{opacity:0.2;fill:#939598;enable-background:new    ;}
	.st5{fill:#EFC303;}
	.st6{fill:#FFE264;}
	.st7{fill:#4584BC;}
	.st8{fill:#013366;}
	.st9{fill:#E6E8EB;}
	.st10{fill:#ED2F4C;}
	.st11{fill:#FFFFFF;}
</style>
<g id="Group-5" transform="translate(0.009)">
	<circle id="Oval" class="st0" cx="84" cy="84.3" r="84"/>
	<path id="Path" class="st1" d="M114.8,51L79.4,89.1l-5.7-5.7L54,118.5l48.2,48.5c32-7.3,56.9-32.4,63.8-64.4L114.8,51z"/>
	<path id="Path-2" class="st2" d="M24.1,36c-0.3-0.1-0.7-0.3-0.9-0.5L22.3,35c-0.1,0.4-0.1,0.8-0.2,1.1L15,109.7
		c-0.3,2.7,0.6,5.3,2.5,7.3L78,65.5L24.1,36z"/>
	<path id="Path-3" class="st3" d="M147.9,123.1l7-73.3c0-0.3,0-0.6,0-0.8L96,68.1l49,60.9C146.7,127.5,147.7,125.4,147.9,123.1z"/>
	<path id="Path-4" class="st2" d="M95.7,67.8l-2-2.5c-3.2-3.9-8.9-4.5-12.8-1.3c0,0-0.1,0.1-0.1,0.1l-1.9,1.6L18,116.9
		c1.5,1.6,3.6,2.7,5.8,2.9l114,11.2c2.6,0.2,5.2-0.7,7.2-2.5L95.7,67.8z"/>
	<path id="Path-5" class="st4" d="M95.7,67.8l-2-2.5c-3.2-3.9-8.9-4.5-12.8-1.3c0,0-0.1,0.1-0.1,0.1l-1.9,1.6L18,116.9
		c1.5,1.6,3.6,2.7,5.8,2.9l114,11.2c2.6,0.2,5.2-0.7,7.2-2.5L95.7,67.8z"/>
	<path id="Path-6" class="st5" d="M95.4,70.6l-2-2.3c-3.3-3.8-9-4.4-12.9-1.3l-1.9,1.5L18,117c1.5,1.6,3.6,2.6,5.8,2.8l114,11.2
		c2.6,0.3,5.2-0.6,7.2-2.3L95.4,70.6z"/>
	<path id="Path-7" class="st4" d="M154.5,53.5c-0.5,0.4-1,0.8-1.6,1.2l-4.1,2.6L91.9,93.1c-4.7,3-11.9,2.4-16-1.4L27.6,46.3L24.1,43
		c-0.5-0.4-0.9-0.9-1.3-1.4c-0.5-1-0.7-2.1-0.8-3.3c0.6-1,2.2-1.5,4.9-1.3l124.6,11.2c2.7,0.2,4.2,1,4.5,2.1
		C155.7,51.5,155.1,52.5,154.5,53.5z"/>
	<path id="Path-8" class="st6" d="M153.5,52.3c-0.5,0.4-1,0.8-1.6,1.1l-4,2.5L92.3,90.2c-5,2.8-11.3,2.2-15.7-1.6L28.6,44.1
		l-3.5-3.2c-0.5-0.4-0.9-0.9-1.3-1.4c-0.5-1-0.8-2.1-0.9-3.2c0.5-1,2.2-1.4,4.8-1.2l122.7,12.2c2.6,0.3,4.1,1,4.5,2.1
		C154.7,50.4,154.2,51.4,153.5,52.3z"/>
	<path id="Path-9" class="st7" d="M28.5,46.9l3.4,16.7c0.3,1.6,0,3.3-0.9,4.6c-0.9,1.4-2.3,2.3-3.9,2.6l0,0
		c-3.3,0.6-6.5-1.5-7.1-4.8c0,0,0,0,0,0L16,46L28.5,46.9z"/>
	<path id="Path-10" class="st7" d="M85,29.9c0.4,5.2-3.6,9.8-8.8,10.1c-5.2,0.4-9.8-3.6-10.1-8.8c-0.4-5.2,3.6-9.8,8.8-10.1
		c2.5-0.2,5,0.7,6.9,2.3C83.6,25,84.8,27.3,85,29.9z"/>
	<path id="Path-11" class="st7" d="M72,55L29.6,44.4l-1.6-23L68.6,5L72,55z"/>
	<path id="Path-12" class="st8" d="M16.5,17.8L28.6,17c2.4-0.2,4.6,1.7,4.8,4.1L35,44.5c0.2,2.4-1.7,4.5-4.1,4.7c0,0,0,0,0,0
		L18.7,50c-2.1,0.1-4.2-0.5-5.8-1.9c-1.6-1.4-2.6-3.3-2.7-5.4L9,26.3C8.7,21.9,12.1,18.1,16.5,17.8C16.5,17.8,16.5,17.8,16.5,17.8z"
		/>
	<path id="Path-13" class="st9" d="M27.2,28.1L15,29c-1.1,0-2-0.8-2-1.9c0,0,0,0,0,0l0,0c-0.1-1.1,0.7-2,1.8-2.2L27,24
		c1.1,0,2,0.8,2,1.9c0,0,0,0,0,0l0,0C29.1,27,28.3,28,27.2,28.1L27.2,28.1z"/>
	<path id="Path-14" class="st9" d="M28.2,35.1L16,36c-1.1,0-2-0.8-2-1.9c0,0,0,0,0,0l0,0c-0.1-1.1,0.7-2.1,1.8-2.2L28,31
		c1.1,0,2,0.8,2,1.9c0,0,0,0,0,0l0,0C30.1,34,29.3,35,28.2,35.1L28.2,35.1z"/>
	<path id="Path-15" class="st9" d="M28.2,41.1L16,42c-1.1,0-2-0.8-2-1.9c0,0,0,0,0,0l0,0c-0.1-1.1,0.7-2.1,1.8-2.2L28,37
		c1.1,0,2,0.8,2,1.9c0,0,0,0,0,0l0,0c0,0.5-0.1,1.1-0.4,1.5C29.2,40.8,28.8,41.1,28.2,41.1L28.2,41.1z"/>
	<path id="Path-16" class="st8" d="M73.5,61L73.5,61c-1.3,0.1-2.5-0.3-3.5-1.2c-1-0.9-1.5-2.1-1.6-3.4L65,5.2
		c-0.1-1.3,0.3-2.6,1.2-3.6c0.8-1,2-1.6,3.3-1.7l0,0c1.3-0.1,2.5,0.3,3.5,1.2c1,0.9,1.5,2.1,1.6,3.4L78,55.8
		c0.1,1.3-0.3,2.6-1.2,3.6C76,60.3,74.8,60.9,73.5,61z"/>
	<path id="Path-17" class="st10" d="M153.9,51c-0.6,7.8-7.4,13.6-15.2,13c-0.1,0-0.1,0-0.2,0c-7.8-1-13.4-8-12.5-15.9
		c0.6-7.8,7.4-13.6,15.2-13c0.1,0,0.1,0,0.2,0C149.2,36,154.8,43.1,153.9,51z"/>
	<path id="Path-18" class="st11" d="M136.1,56.3l-0.1-0.1l0.1-0.6l0.1-0.1c1.3,0,2,0,2.1,0c0.1,0,0.2-0.1,0.3-0.2
		c0.2-0.6,0.3-1.3,0.4-1.9c0.2-1.9,0.4-3.5,0.6-5c0.2-1.9,0.3-3,0.3-3.2c0-0.1-0.1-0.2-0.2-0.2c-0.1,0-0.2,0-0.3,0l-2.8,1l-0.1-0.1
		c0-0.4,0-0.8-0.1-1.2l0.1-0.2c2.1-0.4,4.3-0.8,6.4-1.4l0.2,0.2c-0.2,0.9-0.4,2.1-0.6,3.7c-0.2,1.5-0.4,3.5-0.6,5.7
		c-0.1,0.9-0.2,1.9-0.2,2.9c0,0.2,0.1,0.3,0.2,0.3c0.6,0.2,1.3,0.4,2,0.5l0.1,0.1l-0.1,0.6l-0.1,0.1l-1.2-0.2
		c-1.2-0.2-2.1-0.2-2.5-0.3C138.8,56.5,137.5,56.4,136.1,56.3z"/>
	<path id="Path-19" class="st7" d="M8.8,24.1l1.9-0.1L12,43.8L10.1,44c-2.9,0.1-5.4-2.2-5.5-5.1c0,0,0,0,0-0.1L4,30.1
		C3.7,27.1,5.9,24.5,8.8,24.1z"/>
</g>
</svg>
