<?xml version="1.0" encoding="UTF-8"?>
<svg width="753px" height="125px" viewBox="0 0 753 125" version="1.1" xmlns="http://www.w3.org/2000/svg" xmlns:xlink="http://www.w3.org/1999/xlink">
    <title>notification</title>
    <g id="Page-2" stroke="none" stroke-width="1" fill="none" fill-rule="evenodd">
        <g id="Collection-Notice" transform="translate(-455.000000, -604.000000)">
            <g id="notofication.2" transform="translate(455.000000, 604.000000)">
                <rect id="Rectangle.1" fill="#D0E3EB" x="157" y="14" width="596" height="14"></rect>
                <rect id="Rectangle" fill="#D0E3EB" transform="translate(134.500000, 30.000000) rotate(160.000000) translate(-134.500000, -30.000000) " x="108" y="23" width="53" height="14"></rect>
                <circle id="Oval" fill="#D0E3EB" fill-rule="nonzero" cx="62.5" cy="62.5" r="62.5"></circle>
                <path d="M85.0921004,38 L58.860658,66.2577037 L54.6445427,62.0077608 L40.0390625,88.0276193 L75.7251191,124 C99.3516955,118.688882 117.797471,100.079805 123.046875,76.2593015 L85.0921004,38 Z" id="Path" fill="#AFCEDF" fill-rule="nonzero"></path>
                <path d="M18.0467914,27.0771654 C17.7660428,26.9637795 17.513369,26.8220472 17.3449198,26.680315 L16.6991979,26.311811 C16.6430481,26.5952756 16.5868984,26.8503937 16.5588235,27.1622047 L11.2526738,81.8425197 C11.0561497,83.911811 11.7860963,85.8393701 13.105615,87.2566929 L58.4465241,48.9889764 L18.0467914,27.0771654 Z" id="Path" fill="#FFCD04" fill-rule="nonzero"></path>
                <path d="M109.935829,91.5370079 L115.213904,36.8566929 C115.241979,36.6582677 115.241979,36.4314961 115.241979,36.2330709 L70.9959893,50.4913386 L107.745989,95.9307087 C108.953209,94.8535433 109.76738,93.2944882 109.935829,91.5370079 Z" id="Path" fill="#FCD004" fill-rule="nonzero"></path>
                <path d="M70.9959893,50.519685 L69.5080214,48.6771654 C67.1216578,45.7291339 62.7700535,45.303937 59.8783422,47.7700787 L58.4465241,48.9889764 L13.105615,87.2566929 C14.2005348,88.4472441 15.7165775,89.2409449 17.4291444,89.4110236 L102.411765,97.7732283 C104.433155,97.9716535 106.342246,97.2346457 107.745989,95.9307087 L70.9959893,50.519685 Z" id="Path" fill="#FFCD04" fill-rule="nonzero"></path>
                <path d="M70.9959893,50.519685 L69.5080214,48.6771654 C67.1216578,45.7291339 62.7700535,45.303937 59.8783422,47.7700787 L58.4465241,48.9889764 L13.105615,87.2566929 C14.2005348,88.4472441 15.7165775,89.2409449 17.4291444,89.4110236 L102.411765,97.7732283 C104.433155,97.9716535 106.342246,97.2346457 107.745989,95.9307087 L70.9959893,50.519685 Z" id="Path" fill="#939598" fill-rule="nonzero" opacity="0.2"></path>
                <path d="M70.7994652,52.6456693 L69.3114973,50.888189 C66.8970588,48.0535433 62.5735294,47.6283465 59.6818182,49.9527559 L58.25,51.0866142 L13.105615,87.3417323 C14.2005348,88.4755906 15.7165775,89.2692913 17.4572193,89.4110236 L102.43984,97.7732283 C104.46123,97.9716535 106.370321,97.2913386 107.774064,96.0724409 L70.7994652,52.6456693 Z" id="Path" fill="#EFC303" fill-rule="nonzero"></path>
                <path d="M114.764706,39.4929134 C114.427807,39.776378 114.034759,40.088189 113.557487,40.3716535 L110.497326,42.2992126 L68.0481283,69.1433071 C64.5106952,71.3826772 59.1483957,70.9007874 56.144385,68.0661417 L20.1243316,34.1354331 L17.5414439,31.6976378 C17.1483957,31.3291339 16.8114973,30.9606299 16.5588235,30.6204724 C16.2219251,29.8551181 15.9973262,29.0330709 15.9411765,28.1826772 C16.3622995,27.4456693 17.5975936,27.0488189 19.5909091,27.2472441 L112.518717,35.6377953 C114.512032,35.807874 115.635027,36.4031496 115.887701,37.2251969 C115.635027,38.0188976 115.241979,38.8125984 114.764706,39.4929134 Z" id="Path" fill="#939598" fill-rule="nonzero" opacity="0.2"></path>
                <path d="M114.034759,38.9259843 C113.725936,39.2094488 113.332888,39.4929134 112.855615,39.776378 L109.851604,41.6188976 L68.328877,67.3007874 C64.8475936,69.4551181 59.5695187,68.9165354 56.5935829,66.1385827 L20.8542781,32.7748031 L18.2713904,30.3653543 C17.8783422,29.9968504 17.5414439,29.6283465 17.2887701,29.3165354 C16.9518717,28.5795276 16.7272727,27.7574803 16.6430481,26.9354331 C17.0360963,26.1984252 18.2713904,25.8582677 20.2085561,26.0566929 L111.78877,35.1559055 C113.754011,35.3543307 114.877005,35.9212598 115.129679,36.7149606 C114.877005,37.5370079 114.512032,38.2740157 114.034759,38.9259843 Z" id="Path" fill="#FFE264" fill-rule="nonzero"></path>
                <path d="M21.1606302,34.747542 L23.7480507,47.4135097 C23.9993741,48.6287389 23.7577633,49.8950752 23.0773682,50.9287063 C22.3969732,51.9623373 21.3346944,52.6768222 20.1286106,52.9120298 L20.1286106,52.9120298 C17.6461359,53.4050712 15.2366822,51.7760017 14.7399942,49.2687015 L11.7323944,34.0918919 L21.1606302,34.747542 Z" id="Path" fill="#4584BC" fill-rule="nonzero"></path>
                <path d="M62.9835079,22.0130173 C63.2472589,25.8800441 60.3161825,29.2281379 56.4364118,29.491598 C52.5566411,29.7550581 49.1970413,26.8341396 48.9321303,22.9671915 C48.6672193,19.1002435 51.5972914,15.7512764 55.4769829,15.4866602 C57.3408193,15.3595364 59.1789531,15.9758039 60.5867964,17.1998175 C61.9946397,18.423831 62.8567997,20.1552651 62.9835079,22.0130173 L62.9835079,22.0130173 Z" id="Path" fill="#4584BC" fill-rule="nonzero"></path>
                <polygon id="Path" fill="#4584BC" fill-rule="nonzero" points="53.9859155 40.9675676 22.2047028 33.0605177 21.028169 15.9038514 51.4404586 3.72432432"></polygon>
                <path d="M12.1642788,12.9481337 L21.1113856,12.3268476 C22.9232142,12.2010344 24.4926377,13.5874546 24.6167912,15.4235037 L25.8090773,33.0556781 C25.9332308,34.8917272 24.5650998,36.4821308 22.7532713,36.607944 L13.8061644,37.2292301 C12.2435096,37.3377406 10.70232,36.8127463 9.52163984,35.7697399 C8.34095964,34.7267335 7.61750398,33.2511526 7.51042485,31.6676083 L6.67602394,19.3280347 C6.45304319,16.0304742 8.91021856,13.1740952 12.1642788,12.9481337 Z" id="Path" fill="#013366" fill-rule="nonzero"></path>
                <path d="M20.5331731,21.141275 L11.2951151,21.769935 C10.5027216,21.8207011 9.81761044,21.2292165 9.76167228,20.446051 L9.76167228,20.446051 C9.73141698,19.6766116 10.3238509,19.022126 11.1006297,18.9668509 L20.3312075,18.3381909 C21.1250161,18.2873117 21.8122909,18.8777838 21.8721305,19.6620749 L21.8721305,19.6620749 C21.9023858,20.4315143 21.3099519,21.0859999 20.5331731,21.141275 L20.5331731,21.141275 Z" id="Path" fill="#E6E8EB" fill-rule="nonzero"></path>
                <path d="M20.8133366,26.0179474 L11.5857644,26.6397398 C10.7908048,26.694168 10.101205,26.1079797 10.0453431,25.3303182 L10.0453431,25.3303182 C9.99390129,24.55402 10.5909019,23.8819057 11.3838645,23.8233861 L20.6114367,23.2089089 C21.4063962,23.1544807 22.0959961,23.740669 22.151858,24.5183305 L22.151858,24.5183305 C22.2031854,25.2932448 21.6051612,25.9632432 20.8133366,26.0179474 L20.8133366,26.0179474 Z" id="Path" fill="#E6E8EB" fill-rule="nonzero"></path>
                <path d="M21.1388458,30.8678089 L12.1129494,31.5097181 C11.3366226,31.568682 10.663186,30.9336446 10.6086334,30.091178 L10.6086334,30.091178 C10.5585091,29.2516876 11.1425164,28.5258559 11.9157818,28.466593 L20.9270731,27.7929846 C21.7034,27.7340207 22.3768366,28.3690581 22.4313892,29.2115247 L22.4313892,29.2115247 C22.4636955,29.6174804 22.345401,30.0206446 22.102746,30.3315863 C21.860091,30.642528 21.5131368,30.8355403 21.1388458,30.8678089 L21.1388458,30.8678089 Z" id="Path" fill="#E6E8EB" fill-rule="nonzero"></path>
                <path d="M54.9224173,45.2565466 L54.9224173,45.2565466 C53.9894175,45.3217454 53.0695498,45.00167 52.3652868,44.3667724 C51.6610237,43.7318748 51.2300905,42.8341946 51.1673401,41.8713208 L48.6423743,3.88403844 C48.5771997,2.92192876 48.8856914,1.97260052 49.4997669,1.24556546 C50.1138425,0.51853039 50.9830205,0.0735559637 51.9154781,0.00884567691 L51.9154781,0.00884567691 C52.8477662,-0.05841375 53.767669,0.259945825 54.4721689,0.89366413 C55.1766688,1.52738244 55.6078508,2.4243633 55.6705553,3.3866478 L58.2027147,41.3739301 C58.2678847,42.3380078 57.9586334,43.2892218 57.3432096,44.017648 C56.7277859,44.7460741 55.8567809,45.1918319 54.9224173,45.2565466 Z" id="Path" fill="#013366" fill-rule="nonzero"></path>
                <path d="M114.916,38.1289474 C114.328,44.0921053 109.204,48.4342105 103.436,47.8263158 C97.668,47.2184211 93.468,41.9210526 94.056,35.9578947 C94.644,29.9947368 99.768,25.6526316 105.536,26.2605263 C111.304,26.8684211 115.504,32.1657895 114.916,38.1289474 Z" id="Path" fill="#ED2F4C" fill-rule="nonzero"></path>
                <path d="M101.504,41.95 L101.448,41.8631579 L101.504,41.4289474 L101.588,41.3421053 C102.512,41.3421053 103.016,41.3421053 103.128,41.3131579 C103.212,41.2842105 103.296,41.2263158 103.324,41.1394737 C103.408,40.9947368 103.492,40.5315789 103.604,39.6921053 C103.772,38.2736842 103.912,37.0289474 104.024,35.9289474 C104.164,34.4815789 104.22,33.7 104.22,33.5263158 C104.22,33.4394737 104.164,33.3815789 104.108,33.3815789 C104.08,33.3815789 103.996,33.3815789 103.912,33.4105263 L101.868,34.1342105 L101.784,34.0763158 C101.784,33.7289474 101.756,33.4105263 101.728,33.1789474 L101.784,33.0631579 C103.604,32.7157895 105.144,32.3684211 106.348,31.9921053 L106.516,32.1078947 C106.376,32.7736842 106.264,33.7 106.096,34.8868421 C105.956,36.0447368 105.788,37.4921053 105.648,39.1421053 C105.536,40.2710526 105.508,40.9947368 105.536,41.2842105 C105.564,41.4 105.592,41.5157895 105.676,41.5447368 C105.788,41.6315789 106.264,41.7473684 107.104,41.8921053 L107.188,41.9789474 L107.132,42.4131579 L107.048,42.5 L106.18,42.3842105 C105.284,42.2684211 104.696,42.2105263 104.388,42.1815789 C103.492,42.1236842 102.54,42.0368421 101.504,41.95 Z" id="Path" fill="#FFFFFF" fill-rule="nonzero"></path>
                <path d="M6.72945788,18.1533457 L8.22190825,18.0486486 L9.1971831,32.5449852 L7.70473273,32.6496823 C5.49874868,32.8044346 3.58759023,31.1037876 3.43604087,28.851181 L3.00957482,22.5122547 C2.85802546,20.2596481 4.52347383,18.308098 6.72945788,18.1533457 Z" id="Path" fill="#4584BC" fill-rule="nonzero"></path>
            </g>
        </g>
    </g>
</svg>
