<svg id="notification" xmlns="http://www.w3.org/2000/svg" width="168" height="168.321" viewBox="0 0 168 168.321">
  <g id="Group-5" transform="translate(0.009)">
    <circle id="Oval" cx="84" cy="84" r="84" transform="translate(-0.009 0.321)" fill="#d0e3eb"/>
    <path id="Path" d="M114.789,51,79.4,89.115l-5.689-5.732L54,118.479,102.15,167A84.5,84.5,0,0,0,166,102.606Z" transform="translate(0 0)" fill="#afcedf"/>
    <path id="Path-2" data-name="Path" d="M24.106,36.03a3.608,3.608,0,0,1-.936-.534l-.861-.5a10.385,10.385,0,0,0-.187,1.144l-7.078,73.571A9.387,9.387,0,0,0,17.514,117L78,65.512Z" transform="translate(0 0)" fill="#ffcd04"/>
    <path id="Path-3" data-name="Path" d="M147.924,123.112l7.039-73.276A6.317,6.317,0,0,0,155,49L96,68.107,145,129A9.047,9.047,0,0,0,147.924,123.112Z" transform="translate(0 0)" fill="#fcd004"/>
    <path id="Path-4" data-name="Path" d="M95.684,67.821l-2-2.462a9.091,9.091,0,0,0-12.922-1.212l-1.921,1.629L18,116.906a9.088,9.088,0,0,0,5.8,2.878l114.04,11.173A9.214,9.214,0,0,0,145,128.495Z" transform="translate(0 0)" fill="#ffcd04"/>
    <path id="Path-5" data-name="Path" d="M95.684,67.821l-2-2.462a9.091,9.091,0,0,0-12.922-1.212l-1.921,1.629L18,116.906a9.088,9.088,0,0,0,5.8,2.878l114.04,11.173A9.214,9.214,0,0,0,145,128.495Z" transform="translate(0 0)" fill="#939598" opacity="0.2"/>
    <path id="Path-6" data-name="Path" d="M95.4,70.608l-2-2.35a9.4,9.4,0,0,0-12.918-1.251l-1.921,1.516L18,117a9.15,9.15,0,0,0,5.838,2.767l114.006,11.182A9.514,9.514,0,0,0,145,128.68Z" transform="translate(0 0)" fill="#efc303"/>
    <path id="Path-7" data-name="Path" d="M154.494,53.45a11.983,11.983,0,0,1-1.618,1.175l-4.1,2.579L91.861,93.115c-4.743,3-11.932,2.351-15.96-1.441L27.608,46.283l-3.463-3.261a11.194,11.194,0,0,1-1.317-1.441A9.679,9.679,0,0,1,22,38.319c.565-.986,2.221-1.517,4.893-1.251l124.59,11.225c2.673.228,4.178,1.024,4.517,2.124A11.408,11.408,0,0,1,154.494,53.45Z" transform="translate(0 0)" fill="#939598" opacity="0.2"/>
    <path id="Path-8" data-name="Path" d="M153.533,52.285a9.558,9.558,0,0,1-1.581,1.137l-4.026,2.464L92.274,90.23a13.8,13.8,0,0,1-15.729-1.554l-47.9-44.618-3.462-3.222a14.429,14.429,0,0,1-1.317-1.4A10.247,10.247,0,0,1,23,36.25c.527-.986,2.182-1.44,4.779-1.175L150.522,47.243c2.634.265,4.139,1.023,4.478,2.085A9.887,9.887,0,0,1,153.533,52.285Z" transform="translate(0 0)" fill="#ffe264"/>
    <path id="Path-9" data-name="Path" d="M28.454,46.867l3.418,16.747a6.186,6.186,0,0,1-.886,4.648,6.054,6.054,0,0,1-3.9,2.622h0a6.07,6.07,0,0,1-7.118-4.817L16,46Z" transform="translate(0 0)" fill="#4584bc"/>
    <path id="Path-10" data-name="Path" d="M84.978,29.855a9.5,9.5,0,1,1-3.233-6.515,9.5,9.5,0,0,1,3.233,6.515Z" transform="translate(0 0)" fill="#4584bc"/>
    <path id="Path-11" data-name="Path" d="M72,55,29.571,44.385,28,21.351,68.6,5Z" transform="translate(0 0)" fill="#4584bc"/>
    <path id="Path-12" data-name="Path" d="M16.469,17.833l12.144-.823a4.446,4.446,0,0,1,4.758,4.1l1.618,23.345a4.429,4.429,0,0,1-4.148,4.7L18.7,49.981a8.076,8.076,0,0,1-5.816-1.932,7.891,7.891,0,0,1-2.73-5.431L9.019,26.28A7.955,7.955,0,0,1,16.469,17.833Z" transform="translate(0 0)" fill="#013366"/>
    <path id="Path-13" data-name="Path" d="M27.23,28.081,15.027,29A1.969,1.969,0,0,1,13,27.07h0a2.02,2.02,0,0,1,1.769-2.151L26.963,24A1.979,1.979,0,0,1,29,25.93h0a2.02,2.02,0,0,1-1.769,2.151Z" transform="translate(0 0)" fill="#e6e8eb"/>
    <path id="Path-14" data-name="Path" d="M28.228,35.091l-12.189.9A1.959,1.959,0,0,1,14,34.09h0A2.019,2.019,0,0,1,15.772,31.9l12.189-.894A1.959,1.959,0,0,1,30,32.91h0a2.008,2.008,0,0,1-1.768,2.181Z" transform="translate(0 0)" fill="#e6e8eb"/>
    <path id="Path-15" data-name="Path" d="M28.245,41.133l-12.206.862A1.959,1.959,0,0,1,14,40.09h0a2.008,2.008,0,0,1,1.768-2.181l12.187-.9a1.959,1.959,0,0,1,2.034,1.9h0a2.16,2.16,0,0,1-.444,1.5,1.864,1.864,0,0,1-1.3.72Z" transform="translate(0 0)" fill="#e6e8eb"/>
    <path id="Path-16" data-name="Path" d="M73.536,60.989h0a4.712,4.712,0,0,1-3.471-1.2,4.947,4.947,0,0,1-1.626-3.363L65.012,5.234a4.97,4.97,0,0,1,1.164-3.556A4.734,4.734,0,0,1,69.454.012h0A4.7,4.7,0,0,1,72.925,1.2a4.937,4.937,0,0,1,1.627,3.36l3.437,51.193a4.979,4.979,0,0,1-1.167,3.563A4.744,4.744,0,0,1,73.536,60.989Z" transform="translate(0 0)" fill="#013366"/>
    <path id="Path-17" data-name="Path" d="M153.927,50.952A14.119,14.119,0,0,1,138.6,63.924a14.36,14.36,0,0,1-12.525-15.876A14.119,14.119,0,0,1,141.4,35.076,14.36,14.36,0,0,1,153.927,50.952Z" transform="translate(0 0)" fill="#ed2f4c"/>
    <path id="Path-18" data-name="Path" d="M136.078,56.267,136,56.152l.078-.578.117-.116c1.288,0,1.99,0,2.146-.039a.41.41,0,0,0,.274-.231,7.837,7.837,0,0,0,.39-1.928c.234-1.89.429-3.548.585-5.014.2-1.928.273-2.97.273-3.2a.177.177,0,0,0-.156-.193.887.887,0,0,0-.273.039l-2.849.964-.117-.077a9.693,9.693,0,0,0-.078-1.2l.078-.154A62.237,62.237,0,0,0,142.829,43l.234.154c-.2.887-.351,2.121-.585,3.7-.195,1.543-.429,3.471-.624,5.669a18.619,18.619,0,0,0-.156,2.854c.039.154.078.309.2.347a7.8,7.8,0,0,0,1.99.463l.117.116-.078.578L143.8,57l-1.21-.154c-1.249-.154-2.068-.231-2.5-.27C138.849,56.5,137.522,56.383,136.078,56.267Z" transform="translate(0 0)" fill="#fff"/>
    <path id="Path-19" data-name="Path" d="M8.814,24.143,10.741,24,12,43.843l-1.927.143a5.325,5.325,0,0,1-5.511-5.2L4.012,30.11A5.466,5.466,0,0,1,8.814,24.143Z" transform="translate(0 0)" fill="#4584bc"/>
  </g>
</svg>
