<?xml version="1.0" encoding="UTF-8"?>
<svg width="1272px" height="608px" viewBox="0 0 1272 608" version="1.1" xmlns="http://www.w3.org/2000/svg" xmlns:xlink="http://www.w3.org/1999/xlink">
    <!-- Generator: Sketch 61.2 (89653) - https://sketch.com -->
    <title>pill 2</title>
    <desc>Created with Sketch.</desc>
    <g id="Page-1" stroke="none" stroke-width="1" fill="none" fill-rule="evenodd" opacity="0.0734979539">
        <g id="pill-2" transform="translate(636.000000, 304.000000) scale(-1, 1) translate(-636.000000, -304.000000) " fill-rule="nonzero">
            <polygon id="Path" fill="#224176" points="527.666667 521.2 365 521.2 365 608 609 608 609 169.308367 527.666667 169.308367"></polygon>
            <path d="M284.2,0 C127.213333,0 0,136.07619 0,304 L0,304 C0,471.92381 127.213333,608 284.2,608 L365.4,608 L365.4,521.142857 L284.2,521.142857 C172.279333,521.142857 81.2,423.718095 81.2,304 C81.2,184.281905 172.279333,86.8571429 284.2,86.8571429 L527.8,86.8571429 L527.8,173.714286 L609,173.714286 L609,0 L284.2,0 Z" id="Path" fill="#224176"></path>
            <polygon id="Path" fill="#E3A92B" points="744.074244 86.8 919 86.8 919 0 663 0 663 434 744.074244 434"></polygon>
            <path d="M987.8,0 L906.6,0 L906.6,86.8571429 L987.8,86.8571429 C1099.72067,86.8571429 1190.8,184.281905 1190.8,304 C1190.8,423.718095 1099.72067,521.142857 987.8,521.142857 L744.2,521.142857 L744.2,429.461465 L663,429.461465 L663,608 L987.8,608 C1144.78667,608 1272,471.92381 1272,304 C1272,136.07619 1144.78667,0 987.8,0 Z" id="Path" fill="#E3A92B"></path>
        </g>
    </g>
</svg>