<?xml version="1.0" encoding="utf-8"?>
<!-- Generator: Adobe Illustrator 23.0.3, SVG Export Plug-In . SVG Version: 6.00 Build 0)  -->
<svg version="1.1" id="Layer_1" xmlns="http://www.w3.org/2000/svg" xmlns:xlink="http://www.w3.org/1999/xlink" x="0px" y="0px"
	 viewBox="0 0 96 142" style="enable-background:new 0 0 96 142;" xml:space="preserve">
<style type="text/css">
	.st0{fill:#224176;}
	.st1{fill:#E3A92B;}
</style>
<g>
	<path class="st0" d="M63,75c0,8.27-6.73,15-15,15s-15-6.73-15-15V57h6v-6H27v24c0,11.6,9.4,21,21,21s21-9.4,21-21v-6h-6V75z"/>
	<polygon class="st0" points="45,51 45,57 63,57 63,63 69,63 69,51 	"/>
</g>
<g>
	<polygon class="st0" points="33,39 33,33 27,33 27,45 51,45 51,39 	"/>
	<path class="st0" d="M48,0C36.4,0,27,9.4,27,21v6h6v-6c0-8.27,6.73-15,15-15s15,6.73,15,15v18h-6v6h12V21C69,9.4,59.6,0,48,0z"/>
</g>
<g>
	<polygon class="st1" points="57,33 63,33 63,27 51,27 51,51 57,51 	"/>
	<path class="st1" d="M75,27h-6v6h6c8.27,0,15,6.73,15,15s-6.73,15-15,15H57v-6h-6v12h24c11.6,0,21-9.4,21-21v0
		C96,36.4,86.6,27,75,27z"/>
</g>
<g>
	<polygon class="st1" points="39,63 33,63 33,69 45,69 45,45 39,45 	"/>
	<path class="st1" d="M21,27C9.4,27,0,36.4,0,48v0c0,11.6,9.4,21,21,21h6v-6h-6c-8.27,0-15-6.73-15-15c0-8.27,6.73-15,15-15h18v6h6
		V27H21z"/>
</g>
<g>
	<path class="st0" d="M6.98,133.9v8.1H2v-23h8.45c1.71,0,3.21,0.32,4.51,0.95c1.3,0.63,2.29,1.53,2.99,2.69
		c0.7,1.16,1.05,2.49,1.05,3.97c0,2.25-0.76,4.03-2.29,5.33c-1.53,1.3-3.64,1.95-6.34,1.95H6.98z M6.98,130.06h3.47
		c1.24,0,2.18-0.29,2.84-0.88c0.65-0.59,0.98-1.43,0.98-2.53c0-1.13-0.33-1.88-0.98-2.57c-0.66-0.7-1.56-1.05-2.72-1.07H6.98V130.06
		z"/>
	<path class="st0" d="M29.42,133.58h-3.46V142H21v-23h8.45c2.69,0,4.76,0.61,6.22,1.82c1.46,1.21,2.19,2.92,2.19,5.13
		c0,1.57-0.34,2.88-1.01,3.93c-0.67,1.05-1.69,1.88-3.05,2.5l4.92,9.4V142h-5.03L29.42,133.58z M25.96,130.06h3.5
		c1.18,0,2.09-0.3,2.73-0.91c0.65-0.61,0.97-1.76,0.97-2.82c0-1.08-0.3-1.78-0.91-2.4c-0.61-0.62-1.54-0.93-2.8-0.93h-3.49V130.06z"
		/>
	<path class="st0" d="M47,142h-5v-23h5V142z"/>
	<path class="st0" d="M57.13,119l5.84,16.68L68.78,119h6.16v23h-4.92v-6.29l0.32-10.69L64.56,142h-3.22l-5.68-16.95l0.3,10.66V142
		H51v-23H57.13z"/>
	<path class="st0" d="M91.93,131.91l-8.05,0.02l0.07,6.28L94,138.19V142H79v-23h14.97l0.03,3.96l-10.02,0.02l-0.03,5.07l8.05-0.02
		L91.93,131.91z"/>
</g>
</svg>
