<?xml version="1.0" standalone="no"?>
<svg version="1.0" xmlns="http://www.w3.org/2000/svg"
 width="47.000000pt" height="47.000000pt" viewBox="0 0 47.000000 47.000000"
 preserveAspectRatio="xMidYMid meet">

<g transform="translate(0.000000,47.000000) scale(0.100000,-0.100000)"
fill="#003366" stroke="none">
<path d="M223 363 c-19 -4 -23 -11 -23 -41 0 -34 3 -38 38 -51 20 -8 61 -15
90 -15 43 -1 57 3 68 19 19 26 15 44 -18 68 -27 20 -107 31 -155 20z"/>
<path d="M137 343 c-14 -13 -7 -43 12 -53 29 -15 31 -13 31 25 0 27 -4 35 -18
35 -10 0 -22 -3 -25 -7z"/>
<path d="M190 195 c-14 -8 -33 -14 -42 -15 -14 0 -18 -9 -18 -39 0 -35 3 -39
31 -45 97 -19 194 24 173 77 -13 35 -98 48 -144 22z"/>
<path d="M76 167 c-24 -18 -17 -51 12 -55 19 -3 22 1 22 32 0 39 -6 43 -34 23z"/>
</g>
</svg>
