<?xml version="1.0" standalone="no"?>
<svg version="1.0" xmlns="http://www.w3.org/2000/svg"
 width="47.000000pt" height="47.000000pt" viewBox="0 0 47.000000 47.000000"
 preserveAspectRatio="xMidYMid meet">

<g transform="translate(0.000000,47.000000) scale(0.100000,-0.100000)"
fill="#003366" stroke="none">
<path d="M92 358 c-16 -16 -16 -190 0 -206 7 -7 36 -12 66 -12 33 0 51 -4 47
-10 -3 -5 -17 -10 -31 -10 -15 0 -24 -6 -24 -15 0 -12 16 -15 85 -15 69 0 85
3 85 15 0 9 -9 15 -24 15 -14 0 -28 5 -31 10 -4 6 14 10 47 10 29 0 59 4 66 8
9 6 12 36 10 113 l-3 104 -140 3 c-101 2 -144 -1 -153 -10z m268 -98 l0 -80
-125 0 -125 0 0 73 c0 41 3 77 7 80 3 4 60 7 125 7 l118 0 0 -80z"/>
</g>
</svg>
