<?xml version="1.0" standalone="no"?>
<svg version="1.0" xmlns="http://www.w3.org/2000/svg"
 width="47.000000pt" height="47.000000pt" viewBox="0 0 47.000000 47.000000"
 preserveAspectRatio="xMidYMid meet">

<g transform="translate(0.000000,47.000000) scale(0.100000,-0.100000)"
fill="#003366" stroke="none">
<path d="M100 372 c0 -6 39 -69 56 -90 1 -2 15 4 31 14 15 10 29 19 31 20 1 1
-5 15 -15 33 -16 27 -23 31 -60 31 -24 0 -43 -3 -43 -8z"/>
<path d="M280 348 l-19 -32 30 -18 c16 -10 31 -18 33 -18 6 0 56 80 56 90 0 5
-18 10 -40 10 -35 0 -43 -5 -60 -32z"/>
<path d="M195 278 c-33 -19 -44 -41 -45 -85 0 -34 5 -46 31 -67 96 -81 213 51
124 140 -26 26 -76 32 -110 12z m59 -43 c3 -8 12 -15 21 -15 17 0 20 -16 5
-25 -6 -4 -8 -15 -5 -24 4 -14 -1 -17 -30 -17 -26 1 -35 5 -35 18 0 9 -4 20
-10 23 -15 9 -12 25 5 25 9 0 18 7 21 15 4 8 10 15 14 15 4 0 10 -7 14 -15z"/>
</g>
</svg>
