<?xml version="1.0" standalone="no"?>
<svg version="1.0" xmlns="http://www.w3.org/2000/svg"
 width="47.000000pt" height="47.000000pt" viewBox="0 0 47.000000 47.000000"
 preserveAspectRatio="xMidYMid meet">

<g transform="translate(0.000000,47.000000) scale(0.100000,-0.100000)"
fill="#003366" stroke="none">
<path d="M174 356 c-36 -16 -76 -63 -72 -85 5 -25 27 -24 40 4 23 51 101 71
148 38 l24 -17 -24 -6 c-14 -3 -25 -12 -25 -20 0 -11 14 -15 55 -15 l55 0 3
58 c2 47 0 57 -13 57 -9 0 -19 -9 -22 -20 -7 -24 -5 -24 -45 0 -38 23 -80 25
-124 6z"/>
<path d="M84 197 c-3 -8 -4 -34 -2 -58 3 -47 30 -64 36 -22 l3 22 36 -25 c57
-39 124 -31 176 21 24 25 38 75 20 75 -3 0 -23 -18 -43 -40 -30 -33 -44 -40
-74 -40 -20 0 -49 8 -63 17 l-26 17 24 6 c13 3 24 12 24 20 0 21 -103 27 -111
7z"/>
</g>
</svg>
