<?xml version="1.0" encoding="utf-8"?>
<!-- Generator: Adobe Illustrator 28.0.0, SVG Export Plug-In . SVG Version: 6.00 Build 0)  -->
<svg version="1.1" id="Signing_Authority_" xmlns="http://www.w3.org/2000/svg" xmlns:xlink="http://www.w3.org/1999/xlink" x="0px"
	 y="0px" viewBox="0 0 168 168" style="enable-background:new 0 0 168 168;" xml:space="preserve">
<style type="text/css">
	.st0{display:none;fill:#D0E3EB;}
	.st1{display:none;fill:#AFCEDF;}
	.st2{fill:#D1D1D1;}
	.st3{fill:#0A3960;}
	.st4{fill:#FFFFFF;}
	.st5{fill:#8D7267;}
	.st6{fill:#205F89;}
	.st7{fill:#34B4B7;}
	.st8{fill:#006E99;}
</style>
<circle id="Oval" class="st0" cx="84" cy="84" r="84"/>
<path id="Path" class="st1" d="M116.3,84.1l-36.9,5l-5.7-5.7L54,118.3l48.2,48.2c31.9-7.1,56.8-32,63.8-63.9L116.3,84.1z"/>
<path id="Path-2" class="st2" d="M138.7,111.2v-0.7c-2.6-18.8-7.2-21.6-34.5-34.7l-35.7,0.7c-27.3,9.7-34.3,15.9-36.7,37.2l-3.1,28
	h112.4L138.7,111.2z"/>
<path id="Path-3" class="st3" d="M67.6,70c1.8,2.3,11.1,9.7,16.4,9.1c5.3-0.5,14.1-5.5,15.9-9.4c1.5,1.6,7.1,6,7.1,6l-23.5,56.7
	l-22-54.6L67.6,70z"/>
<g id="Path-4" transform="translate(59.804 13.429)">
	<path id="Path_2115" class="st4" d="M9.5,56.5c0.4,0.6,0.8,1,1.2,1.6l0,0C10.3,57.6,9.9,57,9.5,56.5z"/>
	<path id="Path_2116" class="st5" d="M47,32.8c0-2.8-0.8-3.9-2.1-4.3c0.4-5.6,1-11.7-0.8-15.8C40.3,4.8,29.9,0,22.6,0
		C15.7,0,6.9,4.1,3.1,11.5C0.8,16,1.9,22,2.3,28.1C0.8,28.5,0,29.6,0,32.4c0,4.3,1.9,11.2,4.8,12.1c0.4,1.1,0.8,2.2,1.3,3v0.2
		c0.9,2,2.1,4,3.3,5.8c0.6,0.8,1.2,1.5,1.9,2.2C14.8,59.9,19,62,23.6,62c6.9,0,13.2-5.4,17.3-14c0.3-0.6,0.6-1.2,1-1.7l0.6-1.9
		C45.3,43,47,36.9,47,32.8z"/>
</g>
<path id="Path_2117" class="st3" d="M96.6,22.8c0.4,3.8-6.3,3.6-10.8,2.9c-4.5-0.7-7.1,0.2-11.5,1.3c-4.3,1.3-8.4,5.8-9.1,8
	c-0.4,1.3,0,8,0,8l-3.9-1.8c0,0-1.7-9.6-0.4-15.9c1.3-6,4.5-10.7,15.3-13.2c9.7-2.2,16.6-0.9,16.9,1.6c0.6,0.2,1.3-0.4,2.2-0.4
	c2.2,0,6.5,2.7,8.6,6c1.9,3.4,3.9,9.4,2.6,19.5c-0.2,2.7-0.9,3.4-0.9,3.4l-3,2c0,0,1.5-12.7-3.7-16.5C97.3,26.6,96.6,22.8,96.6,22.8
	z"/>
<g id="Group_37" transform="translate(93.375 13.131)">
	<path id="Path_2118" class="st6" d="M5.5,14.3c5.3,3.9,3.7,16.8,3.7,16.8l3.3-1.8c0.5-1.1,0.8-2.2,0.9-3.4
		C14.7,15.7,13,9.6,10.8,6.1C8.8,2.7,4.4,0,2,0C1.3,0,0.6,0.2,0,0.5c0.9,3.4,3.3,8.2,3.3,9.1C3.3,9.6,4,13.2,5.5,14.3z"/>
	<path id="Path_2119" class="st6" d="M3.3,9.7L3.3,9.7z"/>
</g>
<path id="Path_2120" class="st7" d="M86,83.7h-3.1V78h6v2.4L86,83.7z"/>
<path id="Path_2121" class="st7" d="M86.2,82.8l4.9,47.9l-7.8,6.2l-0.2-0.2l-0.4-53.9H86.2z"/>
<path id="Path_2122" class="st8" d="M80.4,83.7H83V78h-6.2v2.4L80.4,83.7z"/>
<path id="Path_2123" class="st8" d="M80.2,82.8l-4.9,47.9l7.8,6.2l-0.2-54.1L80.2,82.8z"/>
<path id="Path-5" class="st8" d="M86.2,83.7h-3.3v-0.4h3.3V83.7z"/>
</svg>
