<svg id="Signing_Authority_" data-name="Signing Authority " xmlns="http://www.w3.org/2000/svg" width="168" height="168" viewBox="0 0 168 168">
  <circle id="Oval" cx="84" cy="84" r="84" fill="#d0e3eb"/>
  <path id="Path" d="M116.335,83.659,79.4,88.69,73.707,83,54,117.837,102.15,166A84.185,84.185,0,0,0,166,102.081Z" transform="translate(0 0.453)" fill="#afcedf"/>
  <path id="Path-2" data-name="Path" d="M141.255,92.538v-.744c-2.637-18.848-7.191-21.576-34.517-34.72l-35.716.744C43.7,67.49,36.744,73.69,34.347,95.018l-3.116,28.024H143.652Z" transform="translate(-2.557 18.621)" fill="#d1d1d1"/>
  <path id="Path-3" data-name="Path" d="M57.139,54.644c1.767,2.35,11.106,9.662,16.407,9.14s14.135-5.484,15.9-9.4c1.514,1.567,7.068,6.006,7.068,6.006L73.041,117.058,51.081,62.479Z" transform="translate(10.412 15.317)" fill="#0a3960"/>
  <g id="Path-4" data-name="Path" transform="translate(59.804 13.429)">
    <path id="Path_2115" data-name="Path 2115" d="M6.665,35.366c.411.567.821.991,1.232,1.558h0A14.961,14.961,0,0,1,6.665,35.366Z" transform="translate(2.868 21.125)" fill="#fff"/>
    <path id="Path_2116" data-name="Path 2116" d="M47.5,33.084c0-2.809-.835-3.889-2.089-4.322.418-5.618,1.044-11.668-.835-15.774C40.813,4.994,30.371.24,23.061.24,16.169.24,7.4,4.346,3.638,11.693,1.34,16.23,2.384,22.28,2.8,28.331,1.34,28.763.5,29.843.5,32.652c0,4.322,1.88,11.236,4.8,12.1.418,1.08.835,2.161,1.253,3.025v.216A38.086,38.086,0,0,0,9.9,53.828a19.274,19.274,0,0,0,1.88,2.161c3.55,4.106,7.728,6.266,12.322,6.266,6.892,0,13.158-5.4,17.335-14.045a12.127,12.127,0,0,1,1.044-1.729l.627-1.945C45.826,43.24,47.5,37.19,47.5,33.084Z" transform="translate(-0.505 -0.24)" fill="#8d7267"/>
  </g>
  <path id="Path_2117" data-name="Path 2117" d="M36.2,11.919c.432,3.8-6.268,3.578-10.807,2.907s-7.133.224-11.455,1.342c-4.323,1.342-8.429,5.814-9.078,8.05-.432,1.342,0,8.05,0,8.05L.972,30.479S-.757,20.863.539,14.6C1.836,8.565,5.078,3.869,15.885,1.409,25.611-.827,32.527.515,32.744,2.974c.648.224,1.3-.447,2.161-.447,2.161,0,6.484,2.683,8.645,6.038,1.945,3.354,3.89,9.392,2.594,19.454-.216,2.683-.865,3.354-.865,3.354l-3.026,2.013s1.513-12.746-3.674-16.547C36.85,15.72,36.2,11.919,36.2,11.919Z" transform="translate(60.436 10.928)" fill="#0a3960"/>
  <g id="Group_37" data-name="Group 37" transform="translate(93.375 13.131)">
    <path id="Path_2118" data-name="Path 2118" d="M5.731,14.623c5.28,3.869,3.74,16.843,3.74,16.843l3.3-1.821a10.74,10.74,0,0,0,.88-3.414c1.32-10.242-.44-16.388-2.64-19.8C9.031,3.015,4.631.283,2.211.283A5.107,5.107,0,0,0,.231.738c.88,3.414,3.3,8.194,3.3,9.1C3.531,9.843,4.191,13.485,5.731,14.623Z" transform="translate(-0.231 -0.283)" fill="#205f89"/>
    <path id="Path_2119" data-name="Path 2119" d="M2.284,6.232v0Z" transform="translate(1.015 3.436)" fill="#205f89"/>
  </g>
  <path id="Path_2120" data-name="Path 2120" d="M8.965,5.758H5.844V.092H11.89V2.5Z" transform="translate(77.011 77.939)" fill="#34b4b7"/>
  <path id="Path_2121" data-name="Path 2121" d="M9.157,4.908l4.9,47.9-7.808,6.2-.182-.188L5.707,4.908Z" transform="translate(77.011 77.939)" fill="#34b4b7"/>
  <path id="Path_2122" data-name="Path 2122" d="M5.358,5.758H7.973V.092H1.737V2.5Z" transform="translate(75.019 77.939)" fill="#006e99"/>
  <path id="Path_2123" data-name="Path 2123" d="M5.134,4.908l-4.9,47.9,7.808,6.2-.182-54.1Z" transform="translate(75.09 77.939)" fill="#006e99"/>
  <path id="Path-5" data-name="Path" d="M7.239,5.758H3.927V5.333H7.239Z" transform="translate(79.011 77.939)" fill="#006e99"/>
</svg>
