<svg id="Site_Registration" data-name="Site Registration" xmlns="http://www.w3.org/2000/svg" width="168" height="168" viewBox="0 0 168 168">
  <circle id="Oval" cx="84" cy="84" r="84" fill="#d0e3eb"/>
  <path id="Path" d="M114.246,51,79.169,88.786,73.531,83.1,54,117.9,101.72,166A83.76,83.76,0,0,0,165,102.161Z" transform="translate(0.338 0.453)" fill="#afcedf"/>
  <path id="Path-2" data-name="Path" d="M127.849,80.722V26.844A11.345,11.345,0,0,0,116.5,15.493H19.85V131.069A10.429,10.429,0,0,0,30.275,141.5l64.615.163a34.8,34.8,0,0,0,54.462-28.731A34.957,34.957,0,0,0,127.849,80.722Z" transform="translate(14 7.014)" opacity="0.12"/>
  <path id="Path-3" data-name="Path" d="M126.9,134.66a7.346,7.346,0,0,1-7.332,7.34H39.332A7.356,7.356,0,0,1,32,134.608V21.392A7.357,7.357,0,0,1,39.332,14h80.336A7.357,7.357,0,0,1,127,21.392v87.294Z" transform="translate(0.338 0.453)" fill="#4584bc"/>
  <path id="Path-4" data-name="Path" d="M109.805,33H78.192A1.35,1.35,0,0,1,77,31.5h0A1.35,1.35,0,0,1,78.192,30h31.613A1.351,1.351,0,0,1,111,31.5h0A1.355,1.355,0,0,1,109.805,33Z" transform="translate(0.338 0.453)" fill="#fff"/>
  <path id="Path-5" data-name="Path" d="M109.805,40H78.192A1.35,1.35,0,0,1,77,38.5h0A1.35,1.35,0,0,1,78.192,37h31.613A1.351,1.351,0,0,1,111,38.5h0A1.317,1.317,0,0,1,109.805,40Z" transform="translate(0.338 0.453)" fill="#fff"/>
  <path id="Path-6" data-name="Path" d="M109.805,52H78.192A1.35,1.35,0,0,1,77,50.5h0A1.35,1.35,0,0,1,78.192,49h31.613A1.351,1.351,0,0,1,111,50.5h0A1.355,1.355,0,0,1,109.805,52Z" transform="translate(0.338 0.453)" fill="#fff"/>
  <path id="Path-7" data-name="Path" d="M109.805,59H78.192A1.35,1.35,0,0,1,77,57.5h0A1.35,1.35,0,0,1,78.192,56h31.613A1.351,1.351,0,0,1,111,57.5h0A1.317,1.317,0,0,1,109.805,59Z" transform="translate(0.338 0.453)" fill="#fff"/>
  <path id="Path-8" data-name="Path" d="M109.8,68H42.2A1.352,1.352,0,0,1,41,66.5h0A1.352,1.352,0,0,1,42.2,65h67.6a1.352,1.352,0,0,1,1.2,1.5h0A1.356,1.356,0,0,1,109.8,68Z" transform="translate(0.338 0.453)" fill="#fff"/>
  <path id="Path-9" data-name="Path" d="M109.8,74H42.2A1.352,1.352,0,0,1,41,72.5h0A1.352,1.352,0,0,1,42.2,71h67.6a1.352,1.352,0,0,1,1.2,1.5h0A1.319,1.319,0,0,1,109.8,74Z" transform="translate(0.338 0.453)" fill="#fff"/>
  <path id="Path-10" data-name="Path" d="M95.812,93H65.188A1.349,1.349,0,0,1,64,91.5h0A1.349,1.349,0,0,1,65.188,90H95.812A1.349,1.349,0,0,1,97,91.5h0A1.385,1.385,0,0,1,95.812,93Z" transform="translate(0.338 0.453)" fill="#fff"/>
  <path id="Path-11" data-name="Path" d="M109.817,86H65.18A1.347,1.347,0,0,1,64,84.5h0A1.347,1.347,0,0,1,65.18,83h44.637A1.346,1.346,0,0,1,111,84.5h0A1.351,1.351,0,0,1,109.817,86Z" transform="translate(0.338 0.453)" fill="#fff"/>
  <path id="Path-12" data-name="Path" d="M57,97H43V83H57Z" transform="translate(0.338 0.453)" fill="#fff"/>
  <path id="Path-13" data-name="Path" d="M45,95H55V85H45Z" transform="translate(0.338 0.453)" fill="#fff"/>
  <path id="Path-14" data-name="Path" d="M49.379,94,46,90.92l1.242-1.512,1.938,1.736L52.559,87,54,88.288Z" transform="translate(0.338 0.453)" fill="#c3d82e"/>
  <path id="Path-15" data-name="Path" d="M102.8,115H65.2a1.351,1.351,0,0,1-1.2-1.5h0a1.351,1.351,0,0,1,1.2-1.5h37.6a1.351,1.351,0,0,1,1.2,1.5h0A1.355,1.355,0,0,1,102.8,115Z" transform="translate(0.338 0.453)" fill="#fff"/>
  <path id="Path-16" data-name="Path" d="M109.817,109H65.18A1.346,1.346,0,0,1,64,107.5h0a1.346,1.346,0,0,1,1.18-1.5h44.637a1.346,1.346,0,0,1,1.18,1.5h0A1.314,1.314,0,0,1,109.817,109Z" transform="translate(0.338 0.453)" fill="#fff"/>
  <path id="Path-17" data-name="Path" d="M57,120H43V106H57Z" transform="translate(0.338 0.453)" fill="#fff"/>
  <path id="Path-18" data-name="Path" d="M45,118H55V108H45Z" transform="translate(0.338 0.453)" fill="#fff"/>
  <path id="Path-19" data-name="Path" d="M49.379,116,46,112.895l1.242-1.524,1.938,1.806L52.559,109,54,110.3Z" transform="translate(0.338 0.453)" fill="#c3d82e"/>
  <ellipse id="Oval-2" data-name="Oval" cx="15.091" cy="15.007" rx="15.091" ry="15.007" transform="translate(38.258 55.902) rotate(-76.885)" fill="#ed2f4c"/>
  <rect id="Rectangle" width="16" height="5" transform="translate(48 41)" fill="#fff"/>
  <path id="Rectangle-2" data-name="Rectangle" d="M0,0H16V5H0Z" transform="translate(53.838 51.953) rotate(-90)" fill="#fff"/>
  <circle id="Oval-3" data-name="Oval" cx="24.72" cy="24.72" r="24.72" transform="translate(95.744 124.888) rotate(-45)" fill="#a4d72e"/>
  <path id="Path-20" data-name="Path" d="M78.976,88.829,65.626,76.078l5.7-5.4,7.65,7.27L94.353,63.288l5.7,5.442Z" transform="translate(48 49)" fill="#fff"/>
</svg>
