<svg xmlns="http://www.w3.org/2000/svg" width="52.662" height="94.522" viewBox="0 0 52.662 94.522">
  <g id="two.mobile" transform="translate(0 0.5)">
    <g id="Group" transform="translate(0 2)">
      <path id="Path" d="M.139,92.595V85.018l7.736-9.313c18.516-21.94,26.886-33.621,27.012-47.2,0-9.155-3.551-17.678-14.457-17.678-6.595,0-12.048,4.1-15.472,7.576L1.787,9.727C6.86,4.519,13.962.573,22.332.573c15.6,0,22.193,13.417,22.193,26.2,0,16.731-9.765,30.148-24.983,48.457l-5.834,6.63v.316H46.3v10.1H.139Z" transform="translate(-0.139 -0.573)" fill="#e7f1f5" fill-rule="evenodd"/>
    </g>
    <g id="Group-2" data-name="Group" transform="translate(6)">
      <path id="Path-2" data-name="Path" d="M.139,92.595V85.018l7.736-9.313c18.516-21.94,26.886-33.621,27.012-47.2,0-9.155-3.551-17.678-14.457-17.678-6.595,0-12.048,4.1-15.472,7.576L1.787,9.727C6.86,4.519,13.962.573,22.332.573c15.6,0,22.193,13.417,22.193,26.2,0,16.731-9.765,30.148-24.983,48.457l-5.834,6.63v.316H46.3v10.1H.139Z" transform="translate(-0.139 -0.573)" fill="none" stroke="#224176" stroke-width="1" fill-rule="evenodd"/>
    </g>
  </g>
</svg>
