<svg xmlns="http://www.w3.org/2000/svg" width="102.048" height="155.815" viewBox="0 0 102.048 155.815">
  <g id="three.horizontal" transform="translate(0 0.5)">
    <g id="Group">
      <path id="Path" d="M5.226,128.664a67.876,67.876,0,0,0,33.186,9.414c26.131,0,33.97-16.475,33.709-29.028-.261-20.921-19.075-29.812-38.673-29.812H22.211V64.07H33.447c14.633,0,33.447-7.584,33.447-25.367,0-12.03-7.578-22.49-26.131-22.49-12.02,0-23.518,5.23-29.789,9.937L5.749,11.507C13.588,5.753,28.744,0,44.945,0,74.473,0,87.8,17.521,87.8,35.565c0,15.429-9.146,28.5-27.7,35.3v.523c18.291,3.661,33.447,17.521,33.447,38.442,0,24.059-18.553,44.98-54.613,44.98-16.724,0-31.618-5.23-38.935-10.2Z" transform="translate(0)" fill="#e7f1f5" fill-rule="evenodd"/>
    </g>
    <g id="Group-2" data-name="Group" transform="translate(8 0)">
      <path id="Path-2" data-name="Path" d="M5.226,128.664a67.876,67.876,0,0,0,33.186,9.414c26.131,0,33.97-16.475,33.709-29.028-.261-20.921-19.075-29.812-38.673-29.812H22.211V64.07H33.447c14.633,0,33.447-7.584,33.447-25.367,0-12.03-7.578-22.49-26.131-22.49-12.02,0-23.518,5.23-29.789,9.937L5.749,11.507C13.588,5.753,28.744,0,44.945,0,74.473,0,87.8,17.521,87.8,35.565c0,15.429-9.146,28.5-27.7,35.3v.523c18.291,3.661,33.447,17.521,33.447,38.442,0,24.059-18.553,44.98-54.613,44.98-16.724,0-31.618-5.23-38.935-10.2Z" transform="translate(0)" fill="none" stroke="#224176" stroke-width="1" fill-rule="evenodd"/>
    </g>
  </g>
</svg>
