<svg xmlns="http://www.w3.org/2000/svg" width="102.943" height="155.961" viewBox="0 0 102.943 155.961">
  <g id="two.horizontal" transform="translate(0 0.5)">
    <g id="Group" transform="translate(0 3)">
      <path id="Path" d="M.139,153.034V140.481l15.994-15.429C54.415,88.7,71.72,69.35,71.983,46.86c0-15.168-7.342-29.289-29.891-29.289-13.635,0-24.909,6.8-31.989,12.552L3.547,15.74A66.824,66.824,0,0,1,46.024.573C78.275.573,91.91,22.8,91.91,43.983c0,27.72-20.19,49.949-51.654,80.284L28.194,135.251v.523H95.581v16.737H.139Z" transform="translate(-0.139 -0.573)" fill="#e7f1f5" fill-rule="evenodd"/>
    </g>
    <g id="Group-2" data-name="Group" transform="translate(7)">
      <path id="Path-2" data-name="Path" d="M.139,153.034V140.481l15.994-15.429C54.415,88.7,71.72,69.35,71.983,46.86c0-15.168-7.342-29.289-29.891-29.289-13.635,0-24.909,6.8-31.989,12.552L3.547,15.74A66.824,66.824,0,0,1,46.024.573C78.275.573,91.91,22.8,91.91,43.983c0,27.72-20.19,49.949-51.654,80.284L28.194,135.251v.523H95.581v16.737H.139Z" transform="translate(-0.139 -0.573)" fill="none" stroke="#224176" stroke-width="1" fill-rule="evenodd"/>
    </g>
  </g>
</svg>
