<svg xmlns="http://www.w3.org/2000/svg" width="49.274" height="98.522" viewBox="0 0 49.274 98.522">
  <g id="three_mobile" data-name="three,mobile" transform="translate(0 0.5)">
    <g id="Group" transform="translate(0 2)">
      <path id="Path" d="M2.5,79.8c2.751,2.271,9.13,5.839,15.884,5.839,12.507,0,16.259-10.218,16.134-18-.125-12.976-9.13-18.491-18.51-18.491H10.631V39.739h5.378c7,0,16.009-4.7,16.009-15.733,0-7.461-3.627-13.949-12.507-13.949-5.753,0-11.256,3.244-14.258,6.164l-2.5-9.083A28.889,28.889,0,0,1,21.511,0C35.644,0,42.022,10.867,42.022,22.059c0,9.57-4.377,17.68-13.257,21.9v.324c8.755,2.271,16.009,10.867,16.009,23.844,0,14.922-8.88,27.9-26.139,27.9-8,0-15.133-3.244-18.635-6.326Z" transform="translate(0 0)" fill="#e7f1f5" fill-rule="evenodd"/>
    </g>
    <g id="Group-2" data-name="Group" transform="translate(4)">
      <path id="Path-2" data-name="Path" d="M2.5,79.8c2.751,2.271,9.13,5.839,15.884,5.839,12.507,0,16.259-10.218,16.134-18-.125-12.976-9.13-18.491-18.51-18.491H10.631V39.739h5.378c7,0,16.009-4.7,16.009-15.733,0-7.461-3.627-13.949-12.507-13.949-5.753,0-11.256,3.244-14.258,6.164l-2.5-9.083A28.889,28.889,0,0,1,21.511,0C35.644,0,42.022,10.867,42.022,22.059c0,9.57-4.377,17.68-13.257,21.9v.324c8.755,2.271,16.009,10.867,16.009,23.844,0,14.922-8.88,27.9-26.139,27.9-8,0-15.133-3.244-18.635-6.326Z" transform="translate(0 0)" fill="none" stroke="#224176" stroke-width="1" fill-rule="evenodd"/>
    </g>
  </g>
</svg>
